<mxfile host="app.diagrams.net" agent="Mozilla/5.0 (Windows NT 10.0; Win64; x64) AppleWebKit/537.36 (KHTML, like Gecko) Chrome/140.0.0.0 Safari/537.36" version="28.0.6">
  <diagram id="3228e29e-7158-1315-38df-8450db1d8a1d" name="Page-1">
    <mxGraphModel dx="2222" dy="1825" grid="1" gridSize="10" guides="1" tooltips="1" connect="1" arrows="1" fold="1" page="1" pageScale="1" pageWidth="1169" pageHeight="827" background="none" math="0" shadow="0">
      <root>
        <mxCell id="0" />
        <mxCell id="1" parent="0" />
        <mxCell id="CNEqg94M2z1kT1-otJSF-1" value="" style="shape=image;html=1;verticalAlign=top;verticalLabelPosition=bottom;labelBackgroundColor=#ffffff;imageAspect=0;aspect=fixed;image=https://icons.diagrams.net/icon-cache1/Unicons_Line_vol_3-2965/docker-1335.svg" vertex="1" parent="1">
          <mxGeometry x="740" y="86" width="24" height="24" as="geometry" />
        </mxCell>
        <mxCell id="CNEqg94M2z1kT1-otJSF-2" value="&lt;font size=&quot;1&quot;&gt;user management microservice&lt;/font&gt;" style="shape=folder;fontStyle=1;spacingTop=10;tabWidth=40;tabHeight=14;tabPosition=left;html=1;whiteSpace=wrap;align=center;labelPosition=center;verticalLabelPosition=top;verticalAlign=bottom;movable=1;resizable=1;rotatable=1;deletable=1;editable=1;locked=0;connectable=1;" vertex="1" parent="1">
          <mxGeometry x="590" y="110" width="820" height="620" as="geometry" />
        </mxCell>
        <mxCell id="CNEqg94M2z1kT1-otJSF-3" value="&lt;font&gt;User&lt;/font&gt;" style="swimlane;fontStyle=0;childLayout=stackLayout;horizontal=1;startSize=26;fillColor=none;horizontalStack=0;resizeParent=1;resizeParentMax=0;resizeLast=0;collapsible=1;marginBottom=0;whiteSpace=wrap;html=1;fontSize=9;" vertex="1" parent="1">
          <mxGeometry x="1000" y="135" width="170" height="340" as="geometry" />
        </mxCell>
        <mxCell id="CNEqg94M2z1kT1-otJSF-4" value="&lt;font style=&quot;font-size: 9px;&quot;&gt;id : Integer&lt;/font&gt;" style="text;strokeColor=none;fillColor=none;align=left;verticalAlign=top;spacingLeft=4;spacingRight=4;overflow=hidden;rotatable=0;points=[[0,0.5],[1,0.5]];portConstraint=eastwest;whiteSpace=wrap;html=1;" vertex="1" parent="CNEqg94M2z1kT1-otJSF-3">
          <mxGeometry y="26" width="170" height="28" as="geometry" />
        </mxCell>
        <mxCell id="CNEqg94M2z1kT1-otJSF-5" value="airbus_id: Integer" style="text;strokeColor=none;fillColor=none;align=left;verticalAlign=top;spacingLeft=4;spacingRight=4;overflow=hidden;rotatable=0;points=[[0,0.5],[1,0.5]];portConstraint=eastwest;whiteSpace=wrap;html=1;fontSize=9;" vertex="1" parent="CNEqg94M2z1kT1-otJSF-3">
          <mxGeometry y="54" width="170" height="26" as="geometry" />
        </mxCell>
        <mxCell id="CNEqg94M2z1kT1-otJSF-6" value="name: String" style="text;strokeColor=none;fillColor=none;align=left;verticalAlign=top;spacingLeft=4;spacingRight=4;overflow=hidden;rotatable=0;points=[[0,0.5],[1,0.5]];portConstraint=eastwest;whiteSpace=wrap;html=1;fontSize=9;" vertex="1" parent="CNEqg94M2z1kT1-otJSF-3">
          <mxGeometry y="80" width="170" height="26" as="geometry" />
        </mxCell>
        <mxCell id="CNEqg94M2z1kT1-otJSF-7" value="email: String" style="text;strokeColor=none;fillColor=none;align=left;verticalAlign=top;spacingLeft=4;spacingRight=4;overflow=hidden;rotatable=0;points=[[0,0.5],[1,0.5]];portConstraint=eastwest;whiteSpace=wrap;html=1;fontSize=9;" vertex="1" parent="CNEqg94M2z1kT1-otJSF-3">
          <mxGeometry y="106" width="170" height="26" as="geometry" />
        </mxCell>
        <mxCell id="CNEqg94M2z1kT1-otJSF-8" value="password : String" style="text;strokeColor=none;fillColor=none;align=left;verticalAlign=top;spacingLeft=4;spacingRight=4;overflow=hidden;rotatable=0;points=[[0,0.5],[1,0.5]];portConstraint=eastwest;whiteSpace=wrap;html=1;fontSize=9;" vertex="1" parent="CNEqg94M2z1kT1-otJSF-3">
          <mxGeometry y="132" width="170" height="26" as="geometry" />
        </mxCell>
        <mxCell id="CNEqg94M2z1kT1-otJSF-9" value="is_active : Boolean" style="text;strokeColor=none;fillColor=none;align=left;verticalAlign=top;spacingLeft=4;spacingRight=4;overflow=hidden;rotatable=0;points=[[0,0.5],[1,0.5]];portConstraint=eastwest;whiteSpace=wrap;html=1;fontSize=9;" vertex="1" parent="CNEqg94M2z1kT1-otJSF-3">
          <mxGeometry y="158" width="170" height="26" as="geometry" />
        </mxCell>
        <mxCell id="CNEqg94M2z1kT1-otJSF-10" value="verified_at : DateTime" style="text;strokeColor=none;fillColor=none;align=left;verticalAlign=top;spacingLeft=4;spacingRight=4;overflow=hidden;rotatable=0;points=[[0,0.5],[1,0.5]];portConstraint=eastwest;whiteSpace=wrap;html=1;fontSize=9;" vertex="1" parent="CNEqg94M2z1kT1-otJSF-3">
          <mxGeometry y="184" width="170" height="26" as="geometry" />
        </mxCell>
        <mxCell id="CNEqg94M2z1kT1-otJSF-11" value="updated_at : DateTime" style="text;strokeColor=none;fillColor=none;align=left;verticalAlign=top;spacingLeft=4;spacingRight=4;overflow=hidden;rotatable=0;points=[[0,0.5],[1,0.5]];portConstraint=eastwest;whiteSpace=wrap;html=1;fontSize=9;" vertex="1" parent="CNEqg94M2z1kT1-otJSF-3">
          <mxGeometry y="210" width="170" height="26" as="geometry" />
        </mxCell>
        <mxCell id="CNEqg94M2z1kT1-otJSF-12" value="created_at : DateTime" style="text;strokeColor=none;fillColor=none;align=left;verticalAlign=top;spacingLeft=4;spacingRight=4;overflow=hidden;rotatable=0;points=[[0,0.5],[1,0.5]];portConstraint=eastwest;whiteSpace=wrap;html=1;fontSize=9;" vertex="1" parent="CNEqg94M2z1kT1-otJSF-3">
          <mxGeometry y="236" width="170" height="26" as="geometry" />
        </mxCell>
        <mxCell id="CNEqg94M2z1kT1-otJSF-13" value="activation_code : String&amp;nbsp;" style="text;strokeColor=none;fillColor=none;align=left;verticalAlign=top;spacingLeft=4;spacingRight=4;overflow=hidden;rotatable=0;points=[[0,0.5],[1,0.5]];portConstraint=eastwest;whiteSpace=wrap;html=1;fontSize=9;" vertex="1" parent="CNEqg94M2z1kT1-otJSF-3">
          <mxGeometry y="262" width="170" height="26" as="geometry" />
        </mxCell>
        <mxCell id="CNEqg94M2z1kT1-otJSF-14" value="activation_code_expires_at : DateTime" style="text;strokeColor=none;fillColor=none;align=left;verticalAlign=top;spacingLeft=4;spacingRight=4;overflow=hidden;rotatable=0;points=[[0,0.5],[1,0.5]];portConstraint=eastwest;whiteSpace=wrap;html=1;fontSize=9;" vertex="1" parent="CNEqg94M2z1kT1-otJSF-3">
          <mxGeometry y="288" width="170" height="26" as="geometry" />
        </mxCell>
        <mxCell id="CNEqg94M2z1kT1-otJSF-15" value="role: RoleType" style="text;strokeColor=none;fillColor=none;align=left;verticalAlign=top;spacingLeft=4;spacingRight=4;overflow=hidden;rotatable=0;points=[[0,0.5],[1,0.5]];portConstraint=eastwest;whiteSpace=wrap;html=1;fontSize=9;" vertex="1" parent="CNEqg94M2z1kT1-otJSF-3">
          <mxGeometry y="314" width="170" height="26" as="geometry" />
        </mxCell>
        <mxCell id="CNEqg94M2z1kT1-otJSF-16" value="&lt;font&gt;UserToken&lt;/font&gt;" style="swimlane;fontStyle=0;childLayout=stackLayout;horizontal=1;startSize=26;fillColor=none;horizontalStack=0;resizeParent=1;resizeParentMax=0;resizeLast=0;collapsible=1;marginBottom=0;whiteSpace=wrap;html=1;fontSize=9;" vertex="1" parent="1">
          <mxGeometry x="1270" y="213" width="110" height="184" as="geometry" />
        </mxCell>
        <mxCell id="CNEqg94M2z1kT1-otJSF-17" value="&lt;font style=&quot;font-size: 9px;&quot;&gt;id : Integer&lt;/font&gt;" style="text;strokeColor=none;fillColor=none;align=left;verticalAlign=top;spacingLeft=4;spacingRight=4;overflow=hidden;rotatable=0;points=[[0,0.5],[1,0.5]];portConstraint=eastwest;whiteSpace=wrap;html=1;" vertex="1" parent="CNEqg94M2z1kT1-otJSF-16">
          <mxGeometry y="26" width="110" height="28" as="geometry" />
        </mxCell>
        <mxCell id="CNEqg94M2z1kT1-otJSF-18" value="user_id: Integer" style="text;strokeColor=none;fillColor=none;align=left;verticalAlign=top;spacingLeft=4;spacingRight=4;overflow=hidden;rotatable=0;points=[[0,0.5],[1,0.5]];portConstraint=eastwest;whiteSpace=wrap;html=1;fontSize=9;" vertex="1" parent="CNEqg94M2z1kT1-otJSF-16">
          <mxGeometry y="54" width="110" height="26" as="geometry" />
        </mxCell>
        <mxCell id="CNEqg94M2z1kT1-otJSF-19" value="&lt;font&gt;acess_key : String&amp;nbsp;&lt;/font&gt;" style="text;strokeColor=none;fillColor=none;align=left;verticalAlign=top;spacingLeft=4;spacingRight=4;overflow=hidden;rotatable=0;points=[[0,0.5],[1,0.5]];portConstraint=eastwest;whiteSpace=wrap;html=1;fontSize=9;" vertex="1" parent="CNEqg94M2z1kT1-otJSF-16">
          <mxGeometry y="80" width="110" height="26" as="geometry" />
        </mxCell>
        <mxCell id="CNEqg94M2z1kT1-otJSF-20" value="refrech_key : String&lt;span style=&quot;color: rgba(0, 0, 0, 0); font-family: monospace; font-size: 0px; text-wrap-mode: nowrap;&quot;&gt;%3CmxGraphModel%3E%3Croot%3E%3CmxCell%20id%3D%220%22%2F%3E%3CmxCell%20id%3D%221%22%20parent%3D%220%22%2F%3E%3CmxCell%20id%3D%222%22%20value%3D%22%3A%26amp%3Bnbsp%3B%22%20style%3D%22text%3BstrokeColor%3Dnone%3BfillColor%3Dnone%3Balign%3Dleft%3BverticalAlign%3Dtop%3BspacingLeft%3D4%3BspacingRight%3D4%3Boverflow%3Dhidden%3Brotatable%3D0%3Bpoints%3D%5B%5B0%2C0.5%5D%2C%5B1%2C0.5%5D%5D%3BportConstraint%3Deastwest%3BwhiteSpace%3Dwrap%3Bhtml%3D1%3BfontSize%3D9%3B%22%20vertex%3D%221%22%20parent%3D%221%22%3E%3CmxGeometry%20x%3D%22370%22%20y%3D%22364%22%20width%3D%2280%22%20height%3D%2226%22%20as%3D%22geometry%22%2F%3E%3C%2FmxCell%3E%3C%2Froot%3E%3C%2FmxGraphModel%3E&lt;/span&gt;&amp;nbsp;" style="text;strokeColor=none;fillColor=none;align=left;verticalAlign=top;spacingLeft=4;spacingRight=4;overflow=hidden;rotatable=0;points=[[0,0.5],[1,0.5]];portConstraint=eastwest;whiteSpace=wrap;html=1;fontSize=9;" vertex="1" parent="CNEqg94M2z1kT1-otJSF-16">
          <mxGeometry y="106" width="110" height="26" as="geometry" />
        </mxCell>
        <mxCell id="CNEqg94M2z1kT1-otJSF-21" value="created_at : DateTime" style="text;strokeColor=none;fillColor=none;align=left;verticalAlign=top;spacingLeft=4;spacingRight=4;overflow=hidden;rotatable=0;points=[[0,0.5],[1,0.5]];portConstraint=eastwest;whiteSpace=wrap;html=1;fontSize=9;" vertex="1" parent="CNEqg94M2z1kT1-otJSF-16">
          <mxGeometry y="132" width="110" height="26" as="geometry" />
        </mxCell>
        <mxCell id="CNEqg94M2z1kT1-otJSF-22" value="expires_at : DateTime&amp;nbsp;" style="text;strokeColor=none;fillColor=none;align=left;verticalAlign=top;spacingLeft=4;spacingRight=4;overflow=hidden;rotatable=0;points=[[0,0.5],[1,0.5]];portConstraint=eastwest;whiteSpace=wrap;html=1;fontSize=9;" vertex="1" parent="CNEqg94M2z1kT1-otJSF-16">
          <mxGeometry y="158" width="110" height="26" as="geometry" />
        </mxCell>
        <mxCell id="CNEqg94M2z1kT1-otJSF-23" value="&lt;font&gt;Activity&lt;/font&gt;" style="swimlane;fontStyle=0;childLayout=stackLayout;horizontal=1;startSize=26;fillColor=none;horizontalStack=0;resizeParent=1;resizeParentMax=0;resizeLast=0;collapsible=1;marginBottom=0;whiteSpace=wrap;html=1;fontSize=9;" vertex="1" parent="1">
          <mxGeometry x="850" y="528" width="110" height="158" as="geometry" />
        </mxCell>
        <mxCell id="CNEqg94M2z1kT1-otJSF-24" value="&lt;font style=&quot;font-size: 9px;&quot;&gt;id : Integer&lt;/font&gt;" style="text;strokeColor=none;fillColor=none;align=left;verticalAlign=top;spacingLeft=4;spacingRight=4;overflow=hidden;rotatable=0;points=[[0,0.5],[1,0.5]];portConstraint=eastwest;whiteSpace=wrap;html=1;" vertex="1" parent="CNEqg94M2z1kT1-otJSF-23">
          <mxGeometry y="26" width="110" height="28" as="geometry" />
        </mxCell>
        <mxCell id="CNEqg94M2z1kT1-otJSF-25" value="user_id: Integer" style="text;strokeColor=none;fillColor=none;align=left;verticalAlign=top;spacingLeft=4;spacingRight=4;overflow=hidden;rotatable=0;points=[[0,0.5],[1,0.5]];portConstraint=eastwest;whiteSpace=wrap;html=1;fontSize=9;" vertex="1" parent="CNEqg94M2z1kT1-otJSF-23">
          <mxGeometry y="54" width="110" height="26" as="geometry" />
        </mxCell>
        <mxCell id="CNEqg94M2z1kT1-otJSF-26" value="&lt;font&gt;action_type : ActionType&lt;/font&gt;" style="text;strokeColor=none;fillColor=none;align=left;verticalAlign=top;spacingLeft=4;spacingRight=4;overflow=hidden;rotatable=0;points=[[0,0.5],[1,0.5]];portConstraint=eastwest;whiteSpace=wrap;html=1;fontSize=9;" vertex="1" parent="CNEqg94M2z1kT1-otJSF-23">
          <mxGeometry y="80" width="110" height="26" as="geometry" />
        </mxCell>
        <mxCell id="CNEqg94M2z1kT1-otJSF-27" value="timestamp: DateTime&amp;nbsp;" style="text;strokeColor=none;fillColor=none;align=left;verticalAlign=top;spacingLeft=4;spacingRight=4;overflow=hidden;rotatable=0;points=[[0,0.5],[1,0.5]];portConstraint=eastwest;whiteSpace=wrap;html=1;fontSize=9;" vertex="1" parent="CNEqg94M2z1kT1-otJSF-23">
          <mxGeometry y="106" width="110" height="26" as="geometry" />
        </mxCell>
        <mxCell id="CNEqg94M2z1kT1-otJSF-28" value="details : text&lt;span style=&quot;color: rgba(0, 0, 0, 0); font-family: monospace; font-size: 0px; text-wrap-mode: nowrap;&quot;&gt;%3CmxGraphModel%3E%3Croot%3E%3CmxCell%20id%3D%220%22%2F%3E%3CmxCell%20id%3D%221%22%20parent%3D%220%22%2F%3E%3CmxCell%20id%3D%222%22%20value%3D%22%3A%26amp%3Bnbsp%3B%22%20style%3D%22text%3BstrokeColor%3Dnone%3BfillColor%3Dnone%3Balign%3Dleft%3BverticalAlign%3Dtop%3BspacingLeft%3D4%3BspacingRight%3D4%3Boverflow%3Dhidden%3Brotatable%3D0%3Bpoints%3D%5B%5B0%2C0.5%5D%2C%5B1%2C0.5%5D%5D%3BportConstraint%3Deastwest%3BwhiteSpace%3Dwrap%3Bhtml%3D1%3BfontSize%3D9%3B%22%20vertex%3D%221%22%20parent%3D%221%22%3E%3CmxGeometry%20x%3D%22370%22%20y%3D%22364%22%20width%3D%2280%22%20height%3D%2226%22%20as%3D%22geometry%22%2F%3E%3C%2FmxCell%3E%3C%2Froot%3E%3C%2FmxGraphModel%3E&lt;/span&gt;&amp;nbsp;" style="text;strokeColor=none;fillColor=none;align=left;verticalAlign=top;spacingLeft=4;spacingRight=4;overflow=hidden;rotatable=0;points=[[0,0.5],[1,0.5]];portConstraint=eastwest;whiteSpace=wrap;html=1;fontSize=9;" vertex="1" parent="CNEqg94M2z1kT1-otJSF-23">
          <mxGeometry y="132" width="110" height="26" as="geometry" />
        </mxCell>
        <mxCell id="CNEqg94M2z1kT1-otJSF-29" value="&lt;font&gt;Shift&lt;/font&gt;" style="swimlane;fontStyle=0;childLayout=stackLayout;horizontal=1;startSize=26;fillColor=none;horizontalStack=0;resizeParent=1;resizeParentMax=0;resizeLast=0;collapsible=1;marginBottom=0;whiteSpace=wrap;html=1;fontSize=9;" vertex="1" parent="1">
          <mxGeometry x="850" y="160" width="110" height="210" as="geometry" />
        </mxCell>
        <mxCell id="CNEqg94M2z1kT1-otJSF-30" value="&lt;font style=&quot;font-size: 9px;&quot;&gt;id : Integer&lt;/font&gt;" style="text;strokeColor=none;fillColor=none;align=left;verticalAlign=top;spacingLeft=4;spacingRight=4;overflow=hidden;rotatable=0;points=[[0,0.5],[1,0.5]];portConstraint=eastwest;whiteSpace=wrap;html=1;" vertex="1" parent="CNEqg94M2z1kT1-otJSF-29">
          <mxGeometry y="26" width="110" height="28" as="geometry" />
        </mxCell>
        <mxCell id="CNEqg94M2z1kT1-otJSF-31" value="user_id: Integer" style="text;strokeColor=none;fillColor=none;align=left;verticalAlign=top;spacingLeft=4;spacingRight=4;overflow=hidden;rotatable=0;points=[[0,0.5],[1,0.5]];portConstraint=eastwest;whiteSpace=wrap;html=1;fontSize=9;" vertex="1" parent="CNEqg94M2z1kT1-otJSF-29">
          <mxGeometry y="54" width="110" height="26" as="geometry" />
        </mxCell>
        <mxCell id="CNEqg94M2z1kT1-otJSF-32" value="start_time: Time" style="text;strokeColor=none;fillColor=none;align=left;verticalAlign=top;spacingLeft=4;spacingRight=4;overflow=hidden;rotatable=0;points=[[0,0.5],[1,0.5]];portConstraint=eastwest;whiteSpace=wrap;html=1;fontSize=9;" vertex="1" parent="CNEqg94M2z1kT1-otJSF-29">
          <mxGeometry y="80" width="110" height="26" as="geometry" />
        </mxCell>
        <mxCell id="CNEqg94M2z1kT1-otJSF-33" value="end&lt;span style=&quot;background-color: transparent; color: light-dark(rgb(0, 0, 0), rgb(255, 255, 255));&quot;&gt;_time: Time&lt;/span&gt;" style="text;strokeColor=none;fillColor=none;align=left;verticalAlign=top;spacingLeft=4;spacingRight=4;overflow=hidden;rotatable=0;points=[[0,0.5],[1,0.5]];portConstraint=eastwest;whiteSpace=wrap;html=1;fontSize=9;" vertex="1" parent="CNEqg94M2z1kT1-otJSF-29">
          <mxGeometry y="106" width="110" height="26" as="geometry" />
        </mxCell>
        <mxCell id="CNEqg94M2z1kT1-otJSF-34" value="day_of_week : ShiftDay" style="text;strokeColor=none;fillColor=none;align=left;verticalAlign=top;spacingLeft=4;spacingRight=4;overflow=hidden;rotatable=0;points=[[0,0.5],[1,0.5]];portConstraint=eastwest;whiteSpace=wrap;html=1;fontSize=9;" vertex="1" parent="CNEqg94M2z1kT1-otJSF-29">
          <mxGeometry y="132" width="110" height="26" as="geometry" />
        </mxCell>
        <mxCell id="CNEqg94M2z1kT1-otJSF-35" value="created_at : DateTime" style="text;strokeColor=none;fillColor=none;align=left;verticalAlign=top;spacingLeft=4;spacingRight=4;overflow=hidden;rotatable=0;points=[[0,0.5],[1,0.5]];portConstraint=eastwest;whiteSpace=wrap;html=1;fontSize=9;" vertex="1" parent="CNEqg94M2z1kT1-otJSF-29">
          <mxGeometry y="158" width="110" height="26" as="geometry" />
        </mxCell>
        <mxCell id="CNEqg94M2z1kT1-otJSF-36" value="updated_at : DateTime" style="text;strokeColor=none;fillColor=none;align=left;verticalAlign=top;spacingLeft=4;spacingRight=4;overflow=hidden;rotatable=0;points=[[0,0.5],[1,0.5]];portConstraint=eastwest;whiteSpace=wrap;html=1;fontSize=9;" vertex="1" parent="CNEqg94M2z1kT1-otJSF-29">
          <mxGeometry y="184" width="110" height="26" as="geometry" />
        </mxCell>
        <mxCell id="CNEqg94M2z1kT1-otJSF-37" value="&lt;font&gt;Task&lt;/font&gt;" style="swimlane;fontStyle=0;childLayout=stackLayout;horizontal=1;startSize=26;fillColor=none;horizontalStack=0;resizeParent=1;resizeParentMax=0;resizeLast=0;collapsible=1;marginBottom=0;whiteSpace=wrap;html=1;fontSize=9;" vertex="1" parent="1">
          <mxGeometry x="1260" y="440" width="130" height="236" as="geometry" />
        </mxCell>
        <mxCell id="CNEqg94M2z1kT1-otJSF-38" value="&lt;font style=&quot;font-size: 9px;&quot;&gt;id : Integer&lt;/font&gt;" style="text;strokeColor=none;fillColor=none;align=left;verticalAlign=top;spacingLeft=4;spacingRight=4;overflow=hidden;rotatable=0;points=[[0,0.5],[1,0.5]];portConstraint=eastwest;whiteSpace=wrap;html=1;" vertex="1" parent="CNEqg94M2z1kT1-otJSF-37">
          <mxGeometry y="26" width="130" height="28" as="geometry" />
        </mxCell>
        <mxCell id="CNEqg94M2z1kT1-otJSF-39" value="title : String" style="text;strokeColor=none;fillColor=none;align=left;verticalAlign=top;spacingLeft=4;spacingRight=4;overflow=hidden;rotatable=0;points=[[0,0.5],[1,0.5]];portConstraint=eastwest;whiteSpace=wrap;html=1;fontSize=9;" vertex="1" parent="CNEqg94M2z1kT1-otJSF-37">
          <mxGeometry y="54" width="130" height="26" as="geometry" />
        </mxCell>
        <mxCell id="CNEqg94M2z1kT1-otJSF-40" value="descroption : Text" style="text;strokeColor=none;fillColor=none;align=left;verticalAlign=top;spacingLeft=4;spacingRight=4;overflow=hidden;rotatable=0;points=[[0,0.5],[1,0.5]];portConstraint=eastwest;whiteSpace=wrap;html=1;fontSize=9;" vertex="1" parent="CNEqg94M2z1kT1-otJSF-37">
          <mxGeometry y="80" width="130" height="26" as="geometry" />
        </mxCell>
        <mxCell id="CNEqg94M2z1kT1-otJSF-41" value="&lt;span style=&quot;background-color: transparent; color: light-dark(rgb(0, 0, 0), rgb(255, 255, 255));&quot;&gt;asigned_user_id : Integer&lt;/span&gt;" style="text;strokeColor=none;fillColor=none;align=left;verticalAlign=top;spacingLeft=4;spacingRight=4;overflow=hidden;rotatable=0;points=[[0,0.5],[1,0.5]];portConstraint=eastwest;whiteSpace=wrap;html=1;fontSize=9;" vertex="1" parent="CNEqg94M2z1kT1-otJSF-37">
          <mxGeometry y="106" width="130" height="26" as="geometry" />
        </mxCell>
        <mxCell id="CNEqg94M2z1kT1-otJSF-42" value="status: String" style="text;strokeColor=none;fillColor=none;align=left;verticalAlign=top;spacingLeft=4;spacingRight=4;overflow=hidden;rotatable=0;points=[[0,0.5],[1,0.5]];portConstraint=eastwest;whiteSpace=wrap;html=1;fontSize=9;" vertex="1" parent="CNEqg94M2z1kT1-otJSF-37">
          <mxGeometry y="132" width="130" height="26" as="geometry" />
        </mxCell>
        <mxCell id="CNEqg94M2z1kT1-otJSF-43" value="due_date : DateTime" style="text;strokeColor=none;fillColor=none;align=left;verticalAlign=top;spacingLeft=4;spacingRight=4;overflow=hidden;rotatable=0;points=[[0,0.5],[1,0.5]];portConstraint=eastwest;whiteSpace=wrap;html=1;fontSize=9;" vertex="1" parent="CNEqg94M2z1kT1-otJSF-37">
          <mxGeometry y="158" width="130" height="26" as="geometry" />
        </mxCell>
        <mxCell id="CNEqg94M2z1kT1-otJSF-44" value="created_at : DateTime" style="text;strokeColor=none;fillColor=none;align=left;verticalAlign=top;spacingLeft=4;spacingRight=4;overflow=hidden;rotatable=0;points=[[0,0.5],[1,0.5]];portConstraint=eastwest;whiteSpace=wrap;html=1;fontSize=9;" vertex="1" parent="CNEqg94M2z1kT1-otJSF-37">
          <mxGeometry y="184" width="130" height="26" as="geometry" />
        </mxCell>
        <mxCell id="CNEqg94M2z1kT1-otJSF-45" value="updated_at : DateTime" style="text;strokeColor=none;fillColor=none;align=left;verticalAlign=top;spacingLeft=4;spacingRight=4;overflow=hidden;rotatable=0;points=[[0,0.5],[1,0.5]];portConstraint=eastwest;whiteSpace=wrap;html=1;fontSize=9;" vertex="1" parent="CNEqg94M2z1kT1-otJSF-37">
          <mxGeometry y="210" width="130" height="26" as="geometry" />
        </mxCell>
        <mxCell id="CNEqg94M2z1kT1-otJSF-46" value="&lt;font&gt;WorkHours&lt;/font&gt;" style="swimlane;fontStyle=0;childLayout=stackLayout;horizontal=1;startSize=26;fillColor=none;horizontalStack=0;resizeParent=1;resizeParentMax=0;resizeLast=0;collapsible=1;marginBottom=0;whiteSpace=wrap;html=1;fontSize=9;" vertex="1" parent="1">
          <mxGeometry x="635" y="350" width="130" height="158" as="geometry" />
        </mxCell>
        <mxCell id="CNEqg94M2z1kT1-otJSF-47" value="&lt;font style=&quot;font-size: 9px;&quot;&gt;id : Integer&lt;/font&gt;" style="text;strokeColor=none;fillColor=none;align=left;verticalAlign=top;spacingLeft=4;spacingRight=4;overflow=hidden;rotatable=0;points=[[0,0.5],[1,0.5]];portConstraint=eastwest;whiteSpace=wrap;html=1;" vertex="1" parent="CNEqg94M2z1kT1-otJSF-46">
          <mxGeometry y="26" width="130" height="28" as="geometry" />
        </mxCell>
        <mxCell id="CNEqg94M2z1kT1-otJSF-48" value="user_id: Integer" style="text;strokeColor=none;fillColor=none;align=left;verticalAlign=top;spacingLeft=4;spacingRight=4;overflow=hidden;rotatable=0;points=[[0,0.5],[1,0.5]];portConstraint=eastwest;whiteSpace=wrap;html=1;fontSize=9;" vertex="1" parent="CNEqg94M2z1kT1-otJSF-46">
          <mxGeometry y="54" width="130" height="26" as="geometry" />
        </mxCell>
        <mxCell id="CNEqg94M2z1kT1-otJSF-49" value="login_time: DateTime" style="text;strokeColor=none;fillColor=none;align=left;verticalAlign=top;spacingLeft=4;spacingRight=4;overflow=hidden;rotatable=0;points=[[0,0.5],[1,0.5]];portConstraint=eastwest;whiteSpace=wrap;html=1;fontSize=9;" vertex="1" parent="CNEqg94M2z1kT1-otJSF-46">
          <mxGeometry y="80" width="130" height="26" as="geometry" />
        </mxCell>
        <mxCell id="CNEqg94M2z1kT1-otJSF-50" value="logout_time: DateTime" style="text;strokeColor=none;fillColor=none;align=left;verticalAlign=top;spacingLeft=4;spacingRight=4;overflow=hidden;rotatable=0;points=[[0,0.5],[1,0.5]];portConstraint=eastwest;whiteSpace=wrap;html=1;fontSize=9;" vertex="1" parent="CNEqg94M2z1kT1-otJSF-46">
          <mxGeometry y="106" width="130" height="26" as="geometry" />
        </mxCell>
        <mxCell id="CNEqg94M2z1kT1-otJSF-51" value="&lt;span style=&quot;background-color: transparent; color: light-dark(rgb(0, 0, 0), rgb(255, 255, 255));&quot;&gt;asigned_user_id : Integer&lt;/span&gt;" style="text;strokeColor=none;fillColor=none;align=left;verticalAlign=top;spacingLeft=4;spacingRight=4;overflow=hidden;rotatable=0;points=[[0,0.5],[1,0.5]];portConstraint=eastwest;whiteSpace=wrap;html=1;fontSize=9;" vertex="1" parent="CNEqg94M2z1kT1-otJSF-46">
          <mxGeometry y="132" width="130" height="26" as="geometry" />
        </mxCell>
        <mxCell id="CNEqg94M2z1kT1-otJSF-52" value="" style="fontStyle=1;align=center;verticalAlign=middle;childLayout=stackLayout;horizontal=1;horizontalStack=0;resizeParent=1;resizeParentMax=0;resizeLast=0;marginBottom=0;fontSize=9;" vertex="1" parent="1">
          <mxGeometry x="610" y="140" width="200" height="154" as="geometry" />
        </mxCell>
        <mxCell id="CNEqg94M2z1kT1-otJSF-53" value="&amp;lt;&amp;lt;enumeration&amp;gt;&amp;gt;" style="html=1;align=center;spacing=0;verticalAlign=middle;strokeColor=none;fillColor=none;whiteSpace=wrap;" vertex="1" parent="CNEqg94M2z1kT1-otJSF-52">
          <mxGeometry width="200" height="20" as="geometry" />
        </mxCell>
        <mxCell id="CNEqg94M2z1kT1-otJSF-54" value="ActionType" style="html=1;align=center;spacing=0;verticalAlign=middle;strokeColor=none;fillColor=none;whiteSpace=wrap;fontStyle=1;" vertex="1" parent="CNEqg94M2z1kT1-otJSF-52">
          <mxGeometry y="20" width="200" height="14" as="geometry" />
        </mxCell>
        <mxCell id="CNEqg94M2z1kT1-otJSF-55" value="" style="line;strokeWidth=0.25;fillColor=none;align=left;verticalAlign=middle;spacingTop=-1;spacingLeft=3;spacingRight=3;rotatable=0;labelPosition=right;points=[];portConstraint=eastwest;" vertex="1" parent="CNEqg94M2z1kT1-otJSF-52">
          <mxGeometry y="34" width="200" height="8" as="geometry" />
        </mxCell>
        <mxCell id="CNEqg94M2z1kT1-otJSF-56" value="LOGIN" style="html=1;align=left;spacing=0;spacingLeft=8;verticalAlign=middle;strokeColor=none;fillColor=none;whiteSpace=wrap;fontSize=9;" vertex="1" parent="CNEqg94M2z1kT1-otJSF-52">
          <mxGeometry y="42" width="200" height="16" as="geometry" />
        </mxCell>
        <mxCell id="CNEqg94M2z1kT1-otJSF-57" value="LOGOUT" style="html=1;align=left;spacing=0;spacingLeft=8;verticalAlign=middle;strokeColor=none;fillColor=none;whiteSpace=wrap;fontSize=9;" vertex="1" parent="CNEqg94M2z1kT1-otJSF-52">
          <mxGeometry y="58" width="200" height="16" as="geometry" />
        </mxCell>
        <mxCell id="CNEqg94M2z1kT1-otJSF-58" style="edgeStyle=orthogonalEdgeStyle;rounded=0;orthogonalLoop=1;jettySize=auto;html=1;exitX=0.5;exitY=1;exitDx=0;exitDy=0;" edge="1" parent="CNEqg94M2z1kT1-otJSF-52" source="CNEqg94M2z1kT1-otJSF-54" target="CNEqg94M2z1kT1-otJSF-54">
          <mxGeometry relative="1" as="geometry" />
        </mxCell>
        <mxCell id="CNEqg94M2z1kT1-otJSF-59" value="CREATE_PIECE" style="html=1;align=left;spacing=0;spacingLeft=8;verticalAlign=middle;strokeColor=none;fillColor=none;whiteSpace=wrap;fontSize=9;" vertex="1" parent="CNEqg94M2z1kT1-otJSF-52">
          <mxGeometry y="74" width="200" height="16" as="geometry" />
        </mxCell>
        <mxCell id="CNEqg94M2z1kT1-otJSF-60" value="REMOVE_PIECE" style="html=1;align=left;spacing=0;spacingLeft=8;verticalAlign=middle;strokeColor=none;fillColor=none;whiteSpace=wrap;fontSize=9;" vertex="1" parent="CNEqg94M2z1kT1-otJSF-52">
          <mxGeometry y="90" width="200" height="16" as="geometry" />
        </mxCell>
        <mxCell id="CNEqg94M2z1kT1-otJSF-61" value="ANNOTATE_PIECE" style="html=1;align=left;spacing=0;spacingLeft=8;verticalAlign=middle;strokeColor=none;fillColor=none;whiteSpace=wrap;fontSize=9;" vertex="1" parent="CNEqg94M2z1kT1-otJSF-52">
          <mxGeometry y="106" width="200" height="16" as="geometry" />
        </mxCell>
        <mxCell id="CNEqg94M2z1kT1-otJSF-62" value="TRAIN_MODEL" style="html=1;align=left;spacing=0;spacingLeft=8;verticalAlign=middle;strokeColor=none;fillColor=none;whiteSpace=wrap;fontSize=9;" vertex="1" parent="CNEqg94M2z1kT1-otJSF-52">
          <mxGeometry y="122" width="200" height="16" as="geometry" />
        </mxCell>
        <mxCell id="CNEqg94M2z1kT1-otJSF-63" value="INSPECTION" style="html=1;align=left;spacing=0;spacingLeft=8;verticalAlign=middle;strokeColor=none;fillColor=none;whiteSpace=wrap;fontSize=9;" vertex="1" parent="CNEqg94M2z1kT1-otJSF-52">
          <mxGeometry y="138" width="200" height="16" as="geometry" />
        </mxCell>
        <mxCell id="CNEqg94M2z1kT1-otJSF-64" value="" style="fontStyle=1;align=center;verticalAlign=middle;childLayout=stackLayout;horizontal=1;horizontalStack=0;resizeParent=1;resizeParentMax=0;resizeLast=0;marginBottom=0;" vertex="1" parent="1">
          <mxGeometry x="610" y="590" width="200" height="122" as="geometry" />
        </mxCell>
        <mxCell id="CNEqg94M2z1kT1-otJSF-65" value="&amp;lt;&amp;lt;enumeration&amp;gt;&amp;gt;" style="html=1;align=center;spacing=0;verticalAlign=middle;strokeColor=none;fillColor=none;whiteSpace=wrap;" vertex="1" parent="CNEqg94M2z1kT1-otJSF-64">
          <mxGeometry width="200" height="20" as="geometry" />
        </mxCell>
        <mxCell id="CNEqg94M2z1kT1-otJSF-66" value="ShiftDay" style="html=1;align=center;spacing=0;verticalAlign=middle;strokeColor=none;fillColor=none;whiteSpace=wrap;fontStyle=1;" vertex="1" parent="CNEqg94M2z1kT1-otJSF-64">
          <mxGeometry y="20" width="200" height="14" as="geometry" />
        </mxCell>
        <mxCell id="CNEqg94M2z1kT1-otJSF-67" value="" style="line;strokeWidth=0.25;fillColor=none;align=left;verticalAlign=middle;spacingTop=-1;spacingLeft=3;spacingRight=3;rotatable=0;labelPosition=right;points=[];portConstraint=eastwest;" vertex="1" parent="CNEqg94M2z1kT1-otJSF-64">
          <mxGeometry y="34" width="200" height="8" as="geometry" />
        </mxCell>
        <mxCell id="CNEqg94M2z1kT1-otJSF-68" value="MONDAY" style="html=1;align=left;spacing=0;spacingLeft=8;verticalAlign=middle;strokeColor=none;fillColor=none;whiteSpace=wrap;fontSize=9;" vertex="1" parent="CNEqg94M2z1kT1-otJSF-64">
          <mxGeometry y="42" width="200" height="16" as="geometry" />
        </mxCell>
        <mxCell id="CNEqg94M2z1kT1-otJSF-69" style="edgeStyle=orthogonalEdgeStyle;rounded=0;orthogonalLoop=1;jettySize=auto;html=1;exitX=0.5;exitY=1;exitDx=0;exitDy=0;" edge="1" parent="CNEqg94M2z1kT1-otJSF-64" source="CNEqg94M2z1kT1-otJSF-66" target="CNEqg94M2z1kT1-otJSF-66">
          <mxGeometry relative="1" as="geometry" />
        </mxCell>
        <mxCell id="CNEqg94M2z1kT1-otJSF-70" value="TUESDAY" style="html=1;align=left;spacing=0;spacingLeft=8;verticalAlign=middle;strokeColor=none;fillColor=none;whiteSpace=wrap;fontSize=9;" vertex="1" parent="CNEqg94M2z1kT1-otJSF-64">
          <mxGeometry y="58" width="200" height="16" as="geometry" />
        </mxCell>
        <mxCell id="CNEqg94M2z1kT1-otJSF-71" value="WEDNESDAY" style="html=1;align=left;spacing=0;spacingLeft=8;verticalAlign=middle;strokeColor=none;fillColor=none;whiteSpace=wrap;fontSize=9;" vertex="1" parent="CNEqg94M2z1kT1-otJSF-64">
          <mxGeometry y="74" width="200" height="16" as="geometry" />
        </mxCell>
        <mxCell id="CNEqg94M2z1kT1-otJSF-72" value="FRIDAY" style="html=1;align=left;spacing=0;spacingLeft=8;verticalAlign=middle;strokeColor=none;fillColor=none;whiteSpace=wrap;fontSize=9;" vertex="1" parent="CNEqg94M2z1kT1-otJSF-64">
          <mxGeometry y="90" width="200" height="16" as="geometry" />
        </mxCell>
        <mxCell id="CNEqg94M2z1kT1-otJSF-73" value="SATURDAY" style="html=1;align=left;spacing=0;spacingLeft=8;verticalAlign=middle;strokeColor=none;fillColor=none;whiteSpace=wrap;fontSize=9;" vertex="1" parent="CNEqg94M2z1kT1-otJSF-64">
          <mxGeometry y="106" width="200" height="16" as="geometry" />
        </mxCell>
        <mxCell id="CNEqg94M2z1kT1-otJSF-74" value="" style="fontStyle=1;align=center;verticalAlign=middle;childLayout=stackLayout;horizontal=1;horizontalStack=0;resizeParent=1;resizeParentMax=0;resizeLast=0;marginBottom=0;fontSize=9;" vertex="1" parent="1">
          <mxGeometry x="1000" y="570" width="200" height="80" as="geometry" />
        </mxCell>
        <mxCell id="CNEqg94M2z1kT1-otJSF-75" value="&amp;lt;&amp;lt;enumeration&amp;gt;&amp;gt;" style="html=1;align=center;spacing=0;verticalAlign=middle;strokeColor=none;fillColor=none;whiteSpace=wrap;" vertex="1" parent="CNEqg94M2z1kT1-otJSF-74">
          <mxGeometry width="200" height="20" as="geometry" />
        </mxCell>
        <mxCell id="CNEqg94M2z1kT1-otJSF-76" value="RoleType" style="html=1;align=center;spacing=0;verticalAlign=middle;strokeColor=none;fillColor=none;whiteSpace=wrap;fontStyle=1;" vertex="1" parent="CNEqg94M2z1kT1-otJSF-74">
          <mxGeometry y="20" width="200" height="14" as="geometry" />
        </mxCell>
        <mxCell id="CNEqg94M2z1kT1-otJSF-77" value="" style="line;strokeWidth=0.25;fillColor=none;align=left;verticalAlign=middle;spacingTop=-1;spacingLeft=3;spacingRight=3;rotatable=0;labelPosition=right;points=[];portConstraint=eastwest;" vertex="1" parent="CNEqg94M2z1kT1-otJSF-74">
          <mxGeometry y="34" width="200" height="8" as="geometry" />
        </mxCell>
        <mxCell id="CNEqg94M2z1kT1-otJSF-78" value="TECHNICIAN" style="html=1;align=left;spacing=0;spacingLeft=8;verticalAlign=middle;strokeColor=none;fillColor=none;whiteSpace=wrap;fontSize=9;" vertex="1" parent="CNEqg94M2z1kT1-otJSF-74">
          <mxGeometry y="42" width="200" height="16" as="geometry" />
        </mxCell>
        <mxCell id="CNEqg94M2z1kT1-otJSF-79" value="AUDITOR" style="html=1;align=left;spacing=0;spacingLeft=8;verticalAlign=middle;strokeColor=none;fillColor=none;whiteSpace=wrap;fontSize=9;" vertex="1" parent="CNEqg94M2z1kT1-otJSF-74">
          <mxGeometry y="58" width="200" height="16" as="geometry" />
        </mxCell>
        <mxCell id="CNEqg94M2z1kT1-otJSF-80" value="" style="html=1;align=left;spacing=0;spacingLeft=8;verticalAlign=middle;strokeColor=none;fillColor=none;whiteSpace=wrap;" vertex="1" parent="CNEqg94M2z1kT1-otJSF-74">
          <mxGeometry y="74" width="200" height="6" as="geometry" />
        </mxCell>
        <mxCell id="CNEqg94M2z1kT1-otJSF-81" style="edgeStyle=orthogonalEdgeStyle;rounded=0;orthogonalLoop=1;jettySize=auto;html=1;exitX=0.5;exitY=1;exitDx=0;exitDy=0;fontSize=9;" edge="1" parent="CNEqg94M2z1kT1-otJSF-74" source="CNEqg94M2z1kT1-otJSF-76" target="CNEqg94M2z1kT1-otJSF-76">
          <mxGeometry relative="1" as="geometry" />
        </mxCell>
        <mxCell id="CNEqg94M2z1kT1-otJSF-82" value="&lt;font size=&quot;1&quot;&gt;artifact keeper&lt;/font&gt;" style="shape=folder;fontStyle=1;spacingTop=10;tabWidth=40;tabHeight=14;tabPosition=left;html=1;whiteSpace=wrap;align=center;labelPosition=center;verticalLabelPosition=top;verticalAlign=bottom;movable=1;resizable=1;rotatable=1;deletable=1;editable=1;locked=0;connectable=1;" vertex="1" parent="1">
          <mxGeometry x="1470" y="150" width="560" height="600" as="geometry" />
        </mxCell>
        <mxCell id="CNEqg94M2z1kT1-otJSF-83" value="&lt;font&gt;Piece&lt;/font&gt;" style="swimlane;fontStyle=0;childLayout=stackLayout;horizontal=1;startSize=26;fillColor=none;horizontalStack=0;resizeParent=1;resizeParentMax=0;resizeLast=0;collapsible=1;marginBottom=0;whiteSpace=wrap;html=1;fontSize=9;" vertex="1" parent="1">
          <mxGeometry x="1620" y="203" width="170" height="210" as="geometry" />
        </mxCell>
        <mxCell id="CNEqg94M2z1kT1-otJSF-84" value="&lt;font style=&quot;font-size: 9px;&quot;&gt;id : Integer&lt;/font&gt;" style="text;strokeColor=none;fillColor=none;align=left;verticalAlign=top;spacingLeft=4;spacingRight=4;overflow=hidden;rotatable=0;points=[[0,0.5],[1,0.5]];portConstraint=eastwest;whiteSpace=wrap;html=1;" vertex="1" parent="CNEqg94M2z1kT1-otJSF-83">
          <mxGeometry y="26" width="170" height="28" as="geometry" />
        </mxCell>
        <mxCell id="CNEqg94M2z1kT1-otJSF-85" value="class_data_id: Integer" style="text;strokeColor=none;fillColor=none;align=left;verticalAlign=top;spacingLeft=4;spacingRight=4;overflow=hidden;rotatable=0;points=[[0,0.5],[1,0.5]];portConstraint=eastwest;whiteSpace=wrap;html=1;fontSize=9;" vertex="1" parent="CNEqg94M2z1kT1-otJSF-83">
          <mxGeometry y="54" width="170" height="26" as="geometry" />
        </mxCell>
        <mxCell id="CNEqg94M2z1kT1-otJSF-86" value="piece_label: String" style="text;strokeColor=none;fillColor=none;align=left;verticalAlign=top;spacingLeft=4;spacingRight=4;overflow=hidden;rotatable=0;points=[[0,0.5],[1,0.5]];portConstraint=eastwest;whiteSpace=wrap;html=1;fontSize=9;" vertex="1" parent="CNEqg94M2z1kT1-otJSF-83">
          <mxGeometry y="80" width="170" height="26" as="geometry" />
        </mxCell>
        <mxCell id="CNEqg94M2z1kT1-otJSF-87" value="is_annotated: Boolean" style="text;strokeColor=none;fillColor=none;align=left;verticalAlign=top;spacingLeft=4;spacingRight=4;overflow=hidden;rotatable=0;points=[[0,0.5],[1,0.5]];portConstraint=eastwest;whiteSpace=wrap;html=1;fontSize=9;" vertex="1" parent="CNEqg94M2z1kT1-otJSF-83">
          <mxGeometry y="106" width="170" height="26" as="geometry" />
        </mxCell>
        <mxCell id="CNEqg94M2z1kT1-otJSF-88" value="is_yalo_trained: Boolean" style="text;strokeColor=none;fillColor=none;align=left;verticalAlign=top;spacingLeft=4;spacingRight=4;overflow=hidden;rotatable=0;points=[[0,0.5],[1,0.5]];portConstraint=eastwest;whiteSpace=wrap;html=1;fontSize=9;" vertex="1" parent="CNEqg94M2z1kT1-otJSF-83">
          <mxGeometry y="132" width="170" height="26" as="geometry" />
        </mxCell>
        <mxCell id="CNEqg94M2z1kT1-otJSF-89" value="nbre_img: Integer" style="text;strokeColor=none;fillColor=none;align=left;verticalAlign=top;spacingLeft=4;spacingRight=4;overflow=hidden;rotatable=0;points=[[0,0.5],[1,0.5]];portConstraint=eastwest;whiteSpace=wrap;html=1;fontSize=9;" vertex="1" parent="CNEqg94M2z1kT1-otJSF-83">
          <mxGeometry y="158" width="170" height="26" as="geometry" />
        </mxCell>
        <mxCell id="CNEqg94M2z1kT1-otJSF-90" value="created_at : DateTime" style="text;strokeColor=none;fillColor=none;align=left;verticalAlign=top;spacingLeft=4;spacingRight=4;overflow=hidden;rotatable=0;points=[[0,0.5],[1,0.5]];portConstraint=eastwest;whiteSpace=wrap;html=1;fontSize=9;" vertex="1" parent="CNEqg94M2z1kT1-otJSF-83">
          <mxGeometry y="184" width="170" height="26" as="geometry" />
        </mxCell>
        <mxCell id="CNEqg94M2z1kT1-otJSF-91" value="&lt;font&gt;PieceImage&lt;/font&gt;" style="swimlane;fontStyle=0;childLayout=stackLayout;horizontal=1;startSize=26;fillColor=none;horizontalStack=0;resizeParent=1;resizeParentMax=0;resizeLast=0;collapsible=1;marginBottom=0;whiteSpace=wrap;html=1;fontSize=9;" vertex="1" parent="1">
          <mxGeometry x="1840" y="213" width="170" height="210" as="geometry" />
        </mxCell>
        <mxCell id="CNEqg94M2z1kT1-otJSF-92" value="&lt;font style=&quot;font-size: 9px;&quot;&gt;id : Integer&lt;/font&gt;" style="text;strokeColor=none;fillColor=none;align=left;verticalAlign=top;spacingLeft=4;spacingRight=4;overflow=hidden;rotatable=0;points=[[0,0.5],[1,0.5]];portConstraint=eastwest;whiteSpace=wrap;html=1;" vertex="1" parent="CNEqg94M2z1kT1-otJSF-91">
          <mxGeometry y="26" width="170" height="28" as="geometry" />
        </mxCell>
        <mxCell id="CNEqg94M2z1kT1-otJSF-93" value="piece_id: Integer" style="text;strokeColor=none;fillColor=none;align=left;verticalAlign=top;spacingLeft=4;spacingRight=4;overflow=hidden;rotatable=0;points=[[0,0.5],[1,0.5]];portConstraint=eastwest;whiteSpace=wrap;html=1;fontSize=9;" vertex="1" parent="CNEqg94M2z1kT1-otJSF-91">
          <mxGeometry y="54" width="170" height="26" as="geometry" />
        </mxCell>
        <mxCell id="CNEqg94M2z1kT1-otJSF-94" value="file_name: String" style="text;strokeColor=none;fillColor=none;align=left;verticalAlign=top;spacingLeft=4;spacingRight=4;overflow=hidden;rotatable=0;points=[[0,0.5],[1,0.5]];portConstraint=eastwest;whiteSpace=wrap;html=1;fontSize=9;" vertex="1" parent="CNEqg94M2z1kT1-otJSF-91">
          <mxGeometry y="80" width="170" height="26" as="geometry" />
        </mxCell>
        <mxCell id="CNEqg94M2z1kT1-otJSF-95" value="image_path: String" style="text;strokeColor=none;fillColor=none;align=left;verticalAlign=top;spacingLeft=4;spacingRight=4;overflow=hidden;rotatable=0;points=[[0,0.5],[1,0.5]];portConstraint=eastwest;whiteSpace=wrap;html=1;fontSize=9;" vertex="1" parent="CNEqg94M2z1kT1-otJSF-91">
          <mxGeometry y="106" width="170" height="26" as="geometry" />
        </mxCell>
        <mxCell id="CNEqg94M2z1kT1-otJSF-96" value="upload_date: DateTime" style="text;strokeColor=none;fillColor=none;align=left;verticalAlign=top;spacingLeft=4;spacingRight=4;overflow=hidden;rotatable=0;points=[[0,0.5],[1,0.5]];portConstraint=eastwest;whiteSpace=wrap;html=1;fontSize=9;" vertex="1" parent="CNEqg94M2z1kT1-otJSF-91">
          <mxGeometry y="132" width="170" height="26" as="geometry" />
        </mxCell>
        <mxCell id="CNEqg94M2z1kT1-otJSF-97" value="is_deleted: Boolean" style="text;strokeColor=none;fillColor=none;align=left;verticalAlign=top;spacingLeft=4;spacingRight=4;overflow=hidden;rotatable=0;points=[[0,0.5],[1,0.5]];portConstraint=eastwest;whiteSpace=wrap;html=1;fontSize=9;" vertex="1" parent="CNEqg94M2z1kT1-otJSF-91">
          <mxGeometry y="158" width="170" height="26" as="geometry" />
        </mxCell>
        <mxCell id="CNEqg94M2z1kT1-otJSF-98" value="is_annotated: Boolean" style="text;strokeColor=none;fillColor=none;align=left;verticalAlign=top;spacingLeft=4;spacingRight=4;overflow=hidden;rotatable=0;points=[[0,0.5],[1,0.5]];portConstraint=eastwest;whiteSpace=wrap;html=1;fontSize=9;" vertex="1" parent="CNEqg94M2z1kT1-otJSF-91">
          <mxGeometry y="184" width="170" height="26" as="geometry" />
        </mxCell>
        <mxCell id="CNEqg94M2z1kT1-otJSF-99" value="&lt;font&gt;Camera&lt;/font&gt;" style="swimlane;fontStyle=0;childLayout=stackLayout;horizontal=1;startSize=26;fillColor=none;horizontalStack=0;resizeParent=1;resizeParentMax=0;resizeLast=0;collapsible=1;marginBottom=0;whiteSpace=wrap;html=1;fontSize=9;" vertex="1" parent="1">
          <mxGeometry x="1530" y="479" width="170" height="210" as="geometry" />
        </mxCell>
        <mxCell id="CNEqg94M2z1kT1-otJSF-100" value="&lt;font style=&quot;font-size: 9px;&quot;&gt;id : Integer&lt;/font&gt;" style="text;strokeColor=none;fillColor=none;align=left;verticalAlign=top;spacingLeft=4;spacingRight=4;overflow=hidden;rotatable=0;points=[[0,0.5],[1,0.5]];portConstraint=eastwest;whiteSpace=wrap;html=1;" vertex="1" parent="CNEqg94M2z1kT1-otJSF-99">
          <mxGeometry y="26" width="170" height="28" as="geometry" />
        </mxCell>
        <mxCell id="CNEqg94M2z1kT1-otJSF-101" value="camera_index: Integer" style="text;strokeColor=none;fillColor=none;align=left;verticalAlign=top;spacingLeft=4;spacingRight=4;overflow=hidden;rotatable=0;points=[[0,0.5],[1,0.5]];portConstraint=eastwest;whiteSpace=wrap;html=1;fontSize=9;" vertex="1" parent="CNEqg94M2z1kT1-otJSF-99">
          <mxGeometry y="54" width="170" height="26" as="geometry" />
        </mxCell>
        <mxCell id="CNEqg94M2z1kT1-otJSF-102" value="camera_type: String" style="text;strokeColor=none;fillColor=none;align=left;verticalAlign=top;spacingLeft=4;spacingRight=4;overflow=hidden;rotatable=0;points=[[0,0.5],[1,0.5]];portConstraint=eastwest;whiteSpace=wrap;html=1;fontSize=9;" vertex="1" parent="CNEqg94M2z1kT1-otJSF-99">
          <mxGeometry y="80" width="170" height="26" as="geometry" />
        </mxCell>
        <mxCell id="CNEqg94M2z1kT1-otJSF-103" value="serial_number: String" style="text;strokeColor=none;fillColor=none;align=left;verticalAlign=top;spacingLeft=4;spacingRight=4;overflow=hidden;rotatable=0;points=[[0,0.5],[1,0.5]];portConstraint=eastwest;whiteSpace=wrap;html=1;fontSize=9;" vertex="1" parent="CNEqg94M2z1kT1-otJSF-99">
          <mxGeometry y="106" width="170" height="26" as="geometry" />
        </mxCell>
        <mxCell id="CNEqg94M2z1kT1-otJSF-104" value="model: String" style="text;strokeColor=none;fillColor=none;align=left;verticalAlign=top;spacingLeft=4;spacingRight=4;overflow=hidden;rotatable=0;points=[[0,0.5],[1,0.5]];portConstraint=eastwest;whiteSpace=wrap;html=1;fontSize=9;" vertex="1" parent="CNEqg94M2z1kT1-otJSF-99">
          <mxGeometry y="132" width="170" height="26" as="geometry" />
        </mxCell>
        <mxCell id="CNEqg94M2z1kT1-otJSF-105" value="status: Boolean" style="text;strokeColor=none;fillColor=none;align=left;verticalAlign=top;spacingLeft=4;spacingRight=4;overflow=hidden;rotatable=0;points=[[0,0.5],[1,0.5]];portConstraint=eastwest;whiteSpace=wrap;html=1;fontSize=9;" vertex="1" parent="CNEqg94M2z1kT1-otJSF-99">
          <mxGeometry y="158" width="170" height="26" as="geometry" />
        </mxCell>
        <mxCell id="CNEqg94M2z1kT1-otJSF-106" value="settings_id: Integer" style="text;strokeColor=none;fillColor=none;align=left;verticalAlign=top;spacingLeft=4;spacingRight=4;overflow=hidden;rotatable=0;points=[[0,0.5],[1,0.5]];portConstraint=eastwest;whiteSpace=wrap;html=1;fontSize=9;" vertex="1" parent="CNEqg94M2z1kT1-otJSF-99">
          <mxGeometry y="184" width="170" height="26" as="geometry" />
        </mxCell>
        <mxCell id="CNEqg94M2z1kT1-otJSF-107" value="&lt;font&gt;CameraSettings&lt;/font&gt;" style="swimlane;fontStyle=0;childLayout=stackLayout;horizontal=1;startSize=26;fillColor=none;horizontalStack=0;resizeParent=1;resizeParentMax=0;resizeLast=0;collapsible=1;marginBottom=0;whiteSpace=wrap;html=1;fontSize=9;" vertex="1" parent="1">
          <mxGeometry x="1840" y="453" width="170" height="236" as="geometry" />
        </mxCell>
        <mxCell id="CNEqg94M2z1kT1-otJSF-108" value="&lt;font style=&quot;font-size: 9px;&quot;&gt;id : Integer&lt;/font&gt;" style="text;strokeColor=none;fillColor=none;align=left;verticalAlign=top;spacingLeft=4;spacingRight=4;overflow=hidden;rotatable=0;points=[[0,0.5],[1,0.5]];portConstraint=eastwest;whiteSpace=wrap;html=1;" vertex="1" parent="CNEqg94M2z1kT1-otJSF-107">
          <mxGeometry y="26" width="170" height="28" as="geometry" />
        </mxCell>
        <mxCell id="CNEqg94M2z1kT1-otJSF-109" value="exposure: Float" style="text;strokeColor=none;fillColor=none;align=left;verticalAlign=top;spacingLeft=4;spacingRight=4;overflow=hidden;rotatable=0;points=[[0,0.5],[1,0.5]];portConstraint=eastwest;whiteSpace=wrap;html=1;fontSize=9;" vertex="1" parent="CNEqg94M2z1kT1-otJSF-107">
          <mxGeometry y="54" width="170" height="26" as="geometry" />
        </mxCell>
        <mxCell id="CNEqg94M2z1kT1-otJSF-110" value="contrast&lt;span style=&quot;color: rgba(0, 0, 0, 0); font-family: monospace; font-size: 0px; text-wrap-mode: nowrap;&quot;&gt;%3CmxGraphModel%3E%3Croot%3E%3CmxCell%20id%3D%220%22%2F%3E%3CmxCell%20id%3D%221%22%20parent%3D%220%22%2F%3E%3CmxCell%20id%3D%222%22%20value%3D%22exposure%3A%20Float%22%20style%3D%22text%3BstrokeColor%3Dnone%3BfillColor%3Dnone%3Balign%3Dleft%3BverticalAlign%3Dtop%3BspacingLeft%3D4%3BspacingRight%3D4%3Boverflow%3Dhidden%3Brotatable%3D0%3Bpoints%3D%5B%5B0%2C0.5%5D%2C%5B1%2C0.5%5D%5D%3BportConstraint%3Deastwest%3BwhiteSpace%3Dwrap%3Bhtml%3D1%3BfontSize%3D9%3B%22%20vertex%3D%221%22%20parent%3D%221%22%3E%3CmxGeometry%20x%3D%22870%22%20y%3D%22314%22%20width%3D%22170%22%20height%3D%2226%22%20as%3D%22geometry%22%2F%3E%3C%2FmxCell%3E%3C%2Froot%3E%3C%2FmxGraphModel%3E&lt;/span&gt;: Float" style="text;strokeColor=none;fillColor=none;align=left;verticalAlign=top;spacingLeft=4;spacingRight=4;overflow=hidden;rotatable=0;points=[[0,0.5],[1,0.5]];portConstraint=eastwest;whiteSpace=wrap;html=1;fontSize=9;" vertex="1" parent="CNEqg94M2z1kT1-otJSF-107">
          <mxGeometry y="80" width="170" height="26" as="geometry" />
        </mxCell>
        <mxCell id="CNEqg94M2z1kT1-otJSF-111" value="brightness&lt;span style=&quot;color: rgba(0, 0, 0, 0); font-family: monospace; font-size: 0px; text-wrap-mode: nowrap;&quot;&gt;%3CmxGraphModel%3E%3Croot%3E%3CmxCell%20id%3D%220%22%2F%3E%3CmxCell%20id%3D%221%22%20parent%3D%220%22%2F%3E%3CmxCell%20id%3D%222%22%20value%3D%22exposure%3A%20Float%22%20style%3D%22text%3BstrokeColor%3Dnone%3BfillColor%3Dnone%3Balign%3Dleft%3BverticalAlign%3Dtop%3BspacingLeft%3D4%3BspacingRight%3D4%3Boverflow%3Dhidden%3Brotatable%3D0%3Bpoints%3D%5B%5B0%2C0.5%5D%2C%5B1%2C0.5%5D%5D%3BportConstraint%3Deastwest%3BwhiteSpace%3Dwrap%3Bhtml%3D1%3BfontSize%3D9%3B%22%20vertex%3D%221%22%20parent%3D%221%22%3E%3CmxGeometry%20x%3D%22870%22%20y%3D%22314%22%20width%3D%22170%22%20height%3D%2226%22%20as%3D%22geometry%22%2F%3E%3C%2FmxCell%3E%3C%2Froot%3E%3C%2FmxGraphModel%3E&lt;/span&gt;: Float" style="text;strokeColor=none;fillColor=none;align=left;verticalAlign=top;spacingLeft=4;spacingRight=4;overflow=hidden;rotatable=0;points=[[0,0.5],[1,0.5]];portConstraint=eastwest;whiteSpace=wrap;html=1;fontSize=9;" vertex="1" parent="CNEqg94M2z1kT1-otJSF-107">
          <mxGeometry y="106" width="170" height="26" as="geometry" />
        </mxCell>
        <mxCell id="CNEqg94M2z1kT1-otJSF-112" value="focus&lt;span style=&quot;color: rgba(0, 0, 0, 0); font-family: monospace; font-size: 0px; text-wrap-mode: nowrap;&quot;&gt;&lt;span style=&quot;color: rgba(0, 0, 0, 0);&quot;&gt;%3CmxGraphModel%3E%3Croot%3E%3CmxCell%20id%3D%220%22%2F%3E%3CmxCell%20id%3D%221%22%20parent%3D%220%22%2F%3E%3CmxCell%20id%3D%222%22%20value%3D%22brightness%26lt%3Bspan%20style%3D%26quot%3Bcolor%3A%20rgba(0%2C%200%2C%200%2C%200)%3B%20font-family%3A%20monospace%3B%20font-size%3A%200px%3B%20text-wrap-mode%3A%20nowrap%3B%26quot%3B%26gt%3B%253CmxGraphModel%253E%253Croot%253E%253CmxCell%2520id%253D%25220%2522%252F%253E%253CmxCell%2520id%253D%25221%2522%2520parent%253D%25220%2522%252F%253E%253CmxCell%2520id%253D%25222%2522%2520value%253D%2522exposure%253A%2520Float%2522%2520style%253D%2522text%253BstrokeColor%253Dnone%253BfillColor%253Dnone%253Balign%253Dleft%253BverticalAlign%253Dtop%253BspacingLeft%253D4%253BspacingRight%253D4%253Boverflow%253Dhidden%253Brotatable%253D0%253Bpoints%253D%255B%255B0%252C0.5%255D%252C%255B1%252C0.5%255D%255D%253BportConstraint%253Deastwest%253BwhiteSpace%253Dwrap%253Bhtml%253D1%253BfontSize%253D9%253B%2522%2520vertex%253D%25221%2522%2520parent%253D%25221%2522%253E%253CmxGeometry%2520x%253D%2522870%2522%2520y%253D%2522314%2522%2520width%253D%2522170%2522%2520height%253D%252226%2522%2520as%253D%2522geometry%2522%252F%253E%253C%252FmxCell%253E%253C%252Froot%253E%253C%252FmxGraphModel%253E%26lt%3B%2Fspan%26gt%3B%3A%20Float%22%20style%3D%22text%3BstrokeColor%3Dnone%3BfillColor%3Dnone%3Balign%3Dleft%3BverticalAlign%3Dtop%3BspacingLeft%3D4%3BspacingRight%3D4%3Boverflow%3Dhidden%3Brotatable%3D0%3Bpoints%3D%5B%5B0%2C0.5%5D%2C%5B1%2C0.5%5D%5D%3BportConstraint%3Deastwest%3BwhiteSpace%3Dwrap%3Bhtml%3D1%3BfontSize%3D9%3B%22%20vertex%3D%221%22%20parent%3D%221%22%3E%3CmxGeometry%20x%3D%22870%22%20y%3D%22366%22%20width%3D%22170%22%20height%3D%2226%22%20as%3D%22geometry%22%2F%3E%3C%2FmxCell%3E%3C%2Froot%3E%3C%2FmxGraphModel%3E&lt;/span&gt;%3CmxGraphModel%3E%3Croot%3E%3CmxCell%20id%3D%220%22%2F%3E%3CmxCell%20id%3D%221%22%20parent%3D%220%22%2F%3E%3CmxCell%20id%3D%222%22%20value%3D%22exposure%3A%20Float%22%20style%3D%22text%3BstrokeColor%3Dnone%3BfillColor%3Dnone%3Balign%3Dleft%3BverticalAlign%3Dtop%3BspacingLeft%3D4%3BspacingRight%3D4%3Boverflow%3Dhidden%3Brotatable%3D0%3Bpoints%3D%5B%5B0%2C0.5%5D%2C%5B1%2C0.5%5D%5D%3BportConstraint%3Deastwest%3BwhiteSpace%3Dwrap%3Bhtml%3D1%3BfontSize%3D9%3B%22%20vertex%3D%221%22%20parent%3D%221%22%3E%3CmxGeometry%20x%3D%22870%22%20y%3D%22314%22%20width%3D%22170%22%20height%3D%2226%22%20as%3D%22geometry%22%2F%3E%3C%2FmxCell%3E%3C%2Froot%3E%3C%2FmxGraphModel%3E&lt;/span&gt;: Float" style="text;strokeColor=none;fillColor=none;align=left;verticalAlign=top;spacingLeft=4;spacingRight=4;overflow=hidden;rotatable=0;points=[[0,0.5],[1,0.5]];portConstraint=eastwest;whiteSpace=wrap;html=1;fontSize=9;" vertex="1" parent="CNEqg94M2z1kT1-otJSF-107">
          <mxGeometry y="132" width="170" height="26" as="geometry" />
        </mxCell>
        <mxCell id="CNEqg94M2z1kT1-otJSF-113" value="apreture&lt;span style=&quot;color: rgba(0, 0, 0, 0); font-family: monospace; font-size: 0px; text-wrap-mode: nowrap;&quot;&gt;%3CmxGraphModel%3E%3Croot%3E%3CmxCell%20id%3D%220%22%2F%3E%3CmxCell%20id%3D%221%22%20parent%3D%220%22%2F%3E%3CmxCell%20id%3D%222%22%20value%3D%22exposure%3A%20Float%22%20style%3D%22text%3BstrokeColor%3Dnone%3BfillColor%3Dnone%3Balign%3Dleft%3BverticalAlign%3Dtop%3BspacingLeft%3D4%3BspacingRight%3D4%3Boverflow%3Dhidden%3Brotatable%3D0%3Bpoints%3D%5B%5B0%2C0.5%5D%2C%5B1%2C0.5%5D%5D%3BportConstraint%3Deastwest%3BwhiteSpace%3Dwrap%3Bhtml%3D1%3BfontSize%3D9%3B%22%20vertex%3D%221%22%20parent%3D%221%22%3E%3CmxGeometry%20x%3D%22870%22%20y%3D%22314%22%20width%3D%22170%22%20height%3D%2226%22%20as%3D%22geometry%22%2F%3E%3C%2FmxCell%3E%3C%2Froot%3E%3C%2FmxGraphModel%3E&lt;/span&gt;: Float" style="text;strokeColor=none;fillColor=none;align=left;verticalAlign=top;spacingLeft=4;spacingRight=4;overflow=hidden;rotatable=0;points=[[0,0.5],[1,0.5]];portConstraint=eastwest;whiteSpace=wrap;html=1;fontSize=9;" vertex="1" parent="CNEqg94M2z1kT1-otJSF-107">
          <mxGeometry y="158" width="170" height="26" as="geometry" />
        </mxCell>
        <mxCell id="CNEqg94M2z1kT1-otJSF-114" value="gain: Integer" style="text;strokeColor=none;fillColor=none;align=left;verticalAlign=top;spacingLeft=4;spacingRight=4;overflow=hidden;rotatable=0;points=[[0,0.5],[1,0.5]];portConstraint=eastwest;whiteSpace=wrap;html=1;fontSize=9;" vertex="1" parent="CNEqg94M2z1kT1-otJSF-107">
          <mxGeometry y="184" width="170" height="26" as="geometry" />
        </mxCell>
        <mxCell id="CNEqg94M2z1kT1-otJSF-115" value="white_balance: String" style="text;strokeColor=none;fillColor=none;align=left;verticalAlign=top;spacingLeft=4;spacingRight=4;overflow=hidden;rotatable=0;points=[[0,0.5],[1,0.5]];portConstraint=eastwest;whiteSpace=wrap;html=1;fontSize=9;" vertex="1" parent="CNEqg94M2z1kT1-otJSF-107">
          <mxGeometry y="210" width="170" height="26" as="geometry" />
        </mxCell>
        <mxCell id="CNEqg94M2z1kT1-otJSF-116" style="edgeStyle=orthogonalEdgeStyle;rounded=0;orthogonalLoop=1;jettySize=auto;html=1;entryX=0;entryY=0.5;entryDx=0;entryDy=0;endArrow=none;endFill=0;startArrow=diamondThin;startFill=1;" edge="1" parent="1" source="CNEqg94M2z1kT1-otJSF-103" target="CNEqg94M2z1kT1-otJSF-112">
          <mxGeometry relative="1" as="geometry" />
        </mxCell>
        <mxCell id="CNEqg94M2z1kT1-otJSF-117" style="edgeStyle=orthogonalEdgeStyle;rounded=0;orthogonalLoop=1;jettySize=auto;html=1;exitX=1;exitY=0.5;exitDx=0;exitDy=0;entryX=-0.002;entryY=0.02;entryDx=0;entryDy=0;entryPerimeter=0;endArrow=none;endFill=0;startArrow=diamondThin;startFill=1;" edge="1" parent="1" source="CNEqg94M2z1kT1-otJSF-86" target="CNEqg94M2z1kT1-otJSF-95">
          <mxGeometry relative="1" as="geometry">
            <mxPoint x="2046" y="453.74" as="sourcePoint" />
            <mxPoint x="1950" y="301.74" as="targetPoint" />
          </mxGeometry>
        </mxCell>
        <mxCell id="CNEqg94M2z1kT1-otJSF-118" style="edgeStyle=orthogonalEdgeStyle;rounded=0;orthogonalLoop=1;jettySize=auto;html=1;exitX=1;exitY=0.5;exitDx=0;exitDy=0;entryX=0;entryY=0.5;entryDx=0;entryDy=0;" edge="1" parent="1" source="CNEqg94M2z1kT1-otJSF-8" target="CNEqg94M2z1kT1-otJSF-19">
          <mxGeometry relative="1" as="geometry" />
        </mxCell>
        <mxCell id="CNEqg94M2z1kT1-otJSF-119" style="edgeStyle=orthogonalEdgeStyle;rounded=0;orthogonalLoop=1;jettySize=auto;html=1;exitX=1;exitY=0.5;exitDx=0;exitDy=0;entryX=0;entryY=0.5;entryDx=0;entryDy=0;" edge="1" parent="1" source="CNEqg94M2z1kT1-otJSF-6" target="CNEqg94M2z1kT1-otJSF-84">
          <mxGeometry relative="1" as="geometry">
            <Array as="points">
              <mxPoint x="1170" y="160" />
              <mxPoint x="1395" y="160" />
              <mxPoint x="1395" y="243" />
            </Array>
          </mxGeometry>
        </mxCell>
        <mxCell id="CNEqg94M2z1kT1-otJSF-120" style="edgeStyle=orthogonalEdgeStyle;rounded=0;orthogonalLoop=1;jettySize=auto;html=1;exitX=1;exitY=0.5;exitDx=0;exitDy=0;" edge="1" parent="1" source="CNEqg94M2z1kT1-otJSF-12" target="CNEqg94M2z1kT1-otJSF-99">
          <mxGeometry relative="1" as="geometry">
            <Array as="points">
              <mxPoint x="1210" y="384" />
              <mxPoint x="1210" y="410" />
              <mxPoint x="1615" y="410" />
            </Array>
          </mxGeometry>
        </mxCell>
        <mxCell id="CNEqg94M2z1kT1-otJSF-121" style="edgeStyle=orthogonalEdgeStyle;rounded=0;orthogonalLoop=1;jettySize=auto;html=1;exitX=0;exitY=0.5;exitDx=0;exitDy=0;entryX=1;entryY=0.5;entryDx=0;entryDy=0;" edge="1" parent="1" source="CNEqg94M2z1kT1-otJSF-7" target="CNEqg94M2z1kT1-otJSF-32">
          <mxGeometry relative="1" as="geometry" />
        </mxCell>
        <mxCell id="CNEqg94M2z1kT1-otJSF-122" style="edgeStyle=orthogonalEdgeStyle;rounded=0;orthogonalLoop=1;jettySize=auto;html=1;exitX=0.588;exitY=1.192;exitDx=0;exitDy=0;exitPerimeter=0;endArrow=none;endFill=0;" edge="1" parent="1" source="CNEqg94M2z1kT1-otJSF-15" target="CNEqg94M2z1kT1-otJSF-75">
          <mxGeometry relative="1" as="geometry">
            <mxPoint x="1100" y="490" as="sourcePoint" />
            <Array as="points">
              <mxPoint x="1100" y="500" />
              <mxPoint x="1100" y="500" />
            </Array>
          </mxGeometry>
        </mxCell>
        <mxCell id="CNEqg94M2z1kT1-otJSF-123" style="edgeStyle=orthogonalEdgeStyle;rounded=0;orthogonalLoop=1;jettySize=auto;html=1;exitX=0;exitY=0.5;exitDx=0;exitDy=0;entryX=1;entryY=0;entryDx=0;entryDy=0;endArrow=none;endFill=0;" edge="1" parent="1" source="CNEqg94M2z1kT1-otJSF-31" target="CNEqg94M2z1kT1-otJSF-60">
          <mxGeometry relative="1" as="geometry" />
        </mxCell>
        <mxCell id="CNEqg94M2z1kT1-otJSF-124" style="edgeStyle=orthogonalEdgeStyle;rounded=0;orthogonalLoop=1;jettySize=auto;html=1;exitX=0;exitY=0.5;exitDx=0;exitDy=0;entryX=1;entryY=0;entryDx=0;entryDy=0;endArrow=none;endFill=0;" edge="1" parent="1" source="CNEqg94M2z1kT1-otJSF-26" target="CNEqg94M2z1kT1-otJSF-68">
          <mxGeometry relative="1" as="geometry" />
        </mxCell>
        <mxCell id="CNEqg94M2z1kT1-otJSF-125" style="edgeStyle=orthogonalEdgeStyle;rounded=0;orthogonalLoop=1;jettySize=auto;html=1;exitX=0;exitY=0.5;exitDx=0;exitDy=0;entryX=1;entryY=0.5;entryDx=0;entryDy=0;" edge="1" parent="1" source="CNEqg94M2z1kT1-otJSF-13" target="CNEqg94M2z1kT1-otJSF-49">
          <mxGeometry relative="1" as="geometry" />
        </mxCell>
        <mxCell id="CNEqg94M2z1kT1-otJSF-126" value="&lt;font size=&quot;1&quot;&gt;annotation&lt;/font&gt;" style="shape=folder;fontStyle=1;spacingTop=10;tabWidth=40;tabHeight=14;tabPosition=left;html=1;whiteSpace=wrap;align=center;labelPosition=center;verticalLabelPosition=top;verticalAlign=bottom;movable=1;resizable=1;rotatable=1;deletable=1;editable=1;locked=0;connectable=1;" vertex="1" parent="1">
          <mxGeometry x="2060" y="340" width="230" height="320" as="geometry" />
        </mxCell>
        <mxCell id="CNEqg94M2z1kT1-otJSF-127" value="&lt;span style=&quot;font-size: x-small; font-weight: 700;&quot;&gt;annotation&lt;/span&gt;" style="swimlane;fontStyle=0;childLayout=stackLayout;horizontal=1;startSize=26;fillColor=none;horizontalStack=0;resizeParent=1;resizeParentMax=0;resizeLast=0;collapsible=1;marginBottom=0;whiteSpace=wrap;html=1;fontSize=9;" vertex="1" parent="1">
          <mxGeometry x="2100" y="389" width="170" height="236" as="geometry" />
        </mxCell>
        <mxCell id="CNEqg94M2z1kT1-otJSF-128" value="&lt;font style=&quot;font-size: 9px;&quot;&gt;id : Integer&lt;/font&gt;" style="text;strokeColor=none;fillColor=none;align=left;verticalAlign=top;spacingLeft=4;spacingRight=4;overflow=hidden;rotatable=0;points=[[0,0.5],[1,0.5]];portConstraint=eastwest;whiteSpace=wrap;html=1;" vertex="1" parent="CNEqg94M2z1kT1-otJSF-127">
          <mxGeometry y="26" width="170" height="28" as="geometry" />
        </mxCell>
        <mxCell id="CNEqg94M2z1kT1-otJSF-129" value="annotationTXT_name: String" style="text;strokeColor=none;fillColor=none;align=left;verticalAlign=top;spacingLeft=4;spacingRight=4;overflow=hidden;rotatable=0;points=[[0,0.5],[1,0.5]];portConstraint=eastwest;whiteSpace=wrap;html=1;fontSize=9;" vertex="1" parent="CNEqg94M2z1kT1-otJSF-127">
          <mxGeometry y="54" width="170" height="26" as="geometry" />
        </mxCell>
        <mxCell id="CNEqg94M2z1kT1-otJSF-130" value="type: String" style="text;strokeColor=none;fillColor=none;align=left;verticalAlign=top;spacingLeft=4;spacingRight=4;overflow=hidden;rotatable=0;points=[[0,0.5],[1,0.5]];portConstraint=eastwest;whiteSpace=wrap;html=1;fontSize=9;" vertex="1" parent="CNEqg94M2z1kT1-otJSF-127">
          <mxGeometry y="80" width="170" height="26" as="geometry" />
        </mxCell>
        <mxCell id="CNEqg94M2z1kT1-otJSF-131" value="x: Float" style="text;strokeColor=none;fillColor=none;align=left;verticalAlign=top;spacingLeft=4;spacingRight=4;overflow=hidden;rotatable=0;points=[[0,0.5],[1,0.5]];portConstraint=eastwest;whiteSpace=wrap;html=1;fontSize=9;" vertex="1" parent="CNEqg94M2z1kT1-otJSF-127">
          <mxGeometry y="106" width="170" height="26" as="geometry" />
        </mxCell>
        <mxCell id="CNEqg94M2z1kT1-otJSF-132" value="y: Float" style="text;strokeColor=none;fillColor=none;align=left;verticalAlign=top;spacingLeft=4;spacingRight=4;overflow=hidden;rotatable=0;points=[[0,0.5],[1,0.5]];portConstraint=eastwest;whiteSpace=wrap;html=1;fontSize=9;" vertex="1" parent="CNEqg94M2z1kT1-otJSF-127">
          <mxGeometry y="132" width="170" height="26" as="geometry" />
        </mxCell>
        <mxCell id="CNEqg94M2z1kT1-otJSF-133" value="width: Float" style="text;strokeColor=none;fillColor=none;align=left;verticalAlign=top;spacingLeft=4;spacingRight=4;overflow=hidden;rotatable=0;points=[[0,0.5],[1,0.5]];portConstraint=eastwest;whiteSpace=wrap;html=1;fontSize=9;" vertex="1" parent="CNEqg94M2z1kT1-otJSF-127">
          <mxGeometry y="158" width="170" height="26" as="geometry" />
        </mxCell>
        <mxCell id="CNEqg94M2z1kT1-otJSF-134" value="hight: Float" style="text;strokeColor=none;fillColor=none;align=left;verticalAlign=top;spacingLeft=4;spacingRight=4;overflow=hidden;rotatable=0;points=[[0,0.5],[1,0.5]];portConstraint=eastwest;whiteSpace=wrap;html=1;fontSize=9;" vertex="1" parent="CNEqg94M2z1kT1-otJSF-127">
          <mxGeometry y="184" width="170" height="26" as="geometry" />
        </mxCell>
        <mxCell id="CNEqg94M2z1kT1-otJSF-135" value="piece_imgae_id: Integer" style="text;strokeColor=none;fillColor=none;align=left;verticalAlign=top;spacingLeft=4;spacingRight=4;overflow=hidden;rotatable=0;points=[[0,0.5],[1,0.5]];portConstraint=eastwest;whiteSpace=wrap;html=1;fontSize=9;" vertex="1" parent="CNEqg94M2z1kT1-otJSF-127">
          <mxGeometry y="210" width="170" height="26" as="geometry" />
        </mxCell>
        <mxCell id="CNEqg94M2z1kT1-otJSF-136" style="edgeStyle=orthogonalEdgeStyle;rounded=0;orthogonalLoop=1;jettySize=auto;html=1;exitX=1;exitY=0.5;exitDx=0;exitDy=0;entryX=0.5;entryY=0;entryDx=0;entryDy=0;" edge="1" parent="1" source="CNEqg94M2z1kT1-otJSF-93" target="CNEqg94M2z1kT1-otJSF-127">
          <mxGeometry relative="1" as="geometry" />
        </mxCell>
        <mxCell id="CNEqg94M2z1kT1-otJSF-137" value="&lt;font size=&quot;1&quot;&gt;Training microservice&amp;nbsp;&lt;/font&gt;" style="shape=folder;fontStyle=1;spacingTop=10;tabWidth=40;tabHeight=14;tabPosition=left;html=1;whiteSpace=wrap;align=center;labelPosition=center;verticalLabelPosition=top;verticalAlign=bottom;movable=1;resizable=1;rotatable=1;deletable=1;editable=1;locked=0;connectable=1;" vertex="1" parent="1">
          <mxGeometry x="2030" y="-220" width="230" height="350" as="geometry" />
        </mxCell>
        <mxCell id="CNEqg94M2z1kT1-otJSF-138" value="&lt;span style=&quot;font-size: x-small; font-weight: 700;&quot;&gt;training&lt;/span&gt;" style="swimlane;fontStyle=0;childLayout=stackLayout;horizontal=1;startSize=26;fillColor=none;horizontalStack=0;resizeParent=1;resizeParentMax=0;resizeLast=0;collapsible=1;marginBottom=0;whiteSpace=wrap;html=1;fontSize=9;" vertex="1" parent="1">
          <mxGeometry x="2060" y="-170" width="170" height="288" as="geometry" />
        </mxCell>
        <mxCell id="CNEqg94M2z1kT1-otJSF-139" value="&lt;font style=&quot;font-size: 9px;&quot;&gt;id : Integer&lt;/font&gt;" style="text;strokeColor=none;fillColor=none;align=left;verticalAlign=top;spacingLeft=4;spacingRight=4;overflow=hidden;rotatable=0;points=[[0,0.5],[1,0.5]];portConstraint=eastwest;whiteSpace=wrap;html=1;" vertex="1" parent="CNEqg94M2z1kT1-otJSF-138">
          <mxGeometry y="26" width="170" height="28" as="geometry" />
        </mxCell>
        <mxCell id="CNEqg94M2z1kT1-otJSF-140" value="session_name: String" style="text;strokeColor=none;fillColor=none;align=left;verticalAlign=top;spacingLeft=4;spacingRight=4;overflow=hidden;rotatable=0;points=[[0,0.5],[1,0.5]];portConstraint=eastwest;whiteSpace=wrap;html=1;fontSize=9;" vertex="1" parent="CNEqg94M2z1kT1-otJSF-138">
          <mxGeometry y="54" width="170" height="26" as="geometry" />
        </mxCell>
        <mxCell id="CNEqg94M2z1kT1-otJSF-141" value="model_type: String" style="text;strokeColor=none;fillColor=none;align=left;verticalAlign=top;spacingLeft=4;spacingRight=4;overflow=hidden;rotatable=0;points=[[0,0.5],[1,0.5]];portConstraint=eastwest;whiteSpace=wrap;html=1;fontSize=9;" vertex="1" parent="CNEqg94M2z1kT1-otJSF-138">
          <mxGeometry y="80" width="170" height="26" as="geometry" />
        </mxCell>
        <mxCell id="CNEqg94M2z1kT1-otJSF-142" value="epoch: Integer" style="text;strokeColor=none;fillColor=none;align=left;verticalAlign=top;spacingLeft=4;spacingRight=4;overflow=hidden;rotatable=0;points=[[0,0.5],[1,0.5]];portConstraint=eastwest;whiteSpace=wrap;html=1;fontSize=9;" vertex="1" parent="CNEqg94M2z1kT1-otJSF-138">
          <mxGeometry y="106" width="170" height="26" as="geometry" />
        </mxCell>
        <mxCell id="CNEqg94M2z1kT1-otJSF-143" value="batch_size: Integer" style="text;strokeColor=none;fillColor=none;align=left;verticalAlign=top;spacingLeft=4;spacingRight=4;overflow=hidden;rotatable=0;points=[[0,0.5],[1,0.5]];portConstraint=eastwest;whiteSpace=wrap;html=1;fontSize=9;" vertex="1" parent="CNEqg94M2z1kT1-otJSF-138">
          <mxGeometry y="132" width="170" height="26" as="geometry" />
        </mxCell>
        <mxCell id="CNEqg94M2z1kT1-otJSF-144" value="learning_rate : Float" style="text;strokeColor=none;fillColor=none;align=left;verticalAlign=top;spacingLeft=4;spacingRight=4;overflow=hidden;rotatable=0;points=[[0,0.5],[1,0.5]];portConstraint=eastwest;whiteSpace=wrap;html=1;fontSize=9;" vertex="1" parent="CNEqg94M2z1kT1-otJSF-138">
          <mxGeometry y="158" width="170" height="26" as="geometry" />
        </mxCell>
        <mxCell id="CNEqg94M2z1kT1-otJSF-145" value="device_used: String" style="text;strokeColor=none;fillColor=none;align=left;verticalAlign=top;spacingLeft=4;spacingRight=4;overflow=hidden;rotatable=0;points=[[0,0.5],[1,0.5]];portConstraint=eastwest;whiteSpace=wrap;html=1;fontSize=9;" vertex="1" parent="CNEqg94M2z1kT1-otJSF-138">
          <mxGeometry y="184" width="170" height="26" as="geometry" />
        </mxCell>
        <mxCell id="CNEqg94M2z1kT1-otJSF-146" value="piece_id: Integer" style="text;strokeColor=none;fillColor=none;align=left;verticalAlign=top;spacingLeft=4;spacingRight=4;overflow=hidden;rotatable=0;points=[[0,0.5],[1,0.5]];portConstraint=eastwest;whiteSpace=wrap;html=1;fontSize=9;" vertex="1" parent="CNEqg94M2z1kT1-otJSF-138">
          <mxGeometry y="210" width="170" height="26" as="geometry" />
        </mxCell>
        <mxCell id="CNEqg94M2z1kT1-otJSF-147" value="progress_percentage: Float" style="text;strokeColor=none;fillColor=none;align=left;verticalAlign=top;spacingLeft=4;spacingRight=4;overflow=hidden;rotatable=0;points=[[0,0.5],[1,0.5]];portConstraint=eastwest;whiteSpace=wrap;html=1;fontSize=9;" vertex="1" parent="CNEqg94M2z1kT1-otJSF-138">
          <mxGeometry y="236" width="170" height="26" as="geometry" />
        </mxCell>
        <mxCell id="CNEqg94M2z1kT1-otJSF-148" value="is_training: Boolean" style="text;strokeColor=none;fillColor=none;align=left;verticalAlign=top;spacingLeft=4;spacingRight=4;overflow=hidden;rotatable=0;points=[[0,0.5],[1,0.5]];portConstraint=eastwest;whiteSpace=wrap;html=1;fontSize=9;" vertex="1" parent="CNEqg94M2z1kT1-otJSF-138">
          <mxGeometry y="262" width="170" height="26" as="geometry" />
        </mxCell>
        <mxCell id="CNEqg94M2z1kT1-otJSF-149" style="edgeStyle=orthogonalEdgeStyle;rounded=0;orthogonalLoop=1;jettySize=auto;html=1;entryX=0;entryY=0.5;entryDx=0;entryDy=0;endArrow=none;endFill=0;startArrow=diamondThin;startFill=1;exitX=0.5;exitY=0;exitDx=0;exitDy=0;" edge="1" parent="1" source="CNEqg94M2z1kT1-otJSF-83" target="CNEqg94M2z1kT1-otJSF-142">
          <mxGeometry relative="1" as="geometry">
            <mxPoint x="1900" y="-30" as="sourcePoint" />
            <mxPoint x="2060" y="134" as="targetPoint" />
          </mxGeometry>
        </mxCell>
        <mxCell id="CNEqg94M2z1kT1-otJSF-150" value="&lt;font size=&quot;1&quot;&gt;Detection&lt;/font&gt;" style="shape=folder;fontStyle=1;spacingTop=10;tabWidth=40;tabHeight=14;tabPosition=left;html=1;whiteSpace=wrap;align=center;labelPosition=center;verticalLabelPosition=top;verticalAlign=bottom;movable=1;resizable=1;rotatable=1;deletable=1;editable=1;locked=0;connectable=1;" vertex="1" parent="1">
          <mxGeometry x="1010" y="-560" width="560" height="610" as="geometry" />
        </mxCell>
        <mxCell id="CNEqg94M2z1kT1-otJSF-151" value="&lt;font&gt;DetectionLot&lt;/font&gt;" style="swimlane;fontStyle=0;childLayout=stackLayout;horizontal=1;startSize=26;fillColor=none;horizontalStack=0;resizeParent=1;resizeParentMax=0;resizeLast=0;collapsible=1;marginBottom=0;whiteSpace=wrap;html=1;fontSize=9;" vertex="1" parent="1">
          <mxGeometry x="1100" y="-507" width="170" height="230" as="geometry" />
        </mxCell>
        <mxCell id="CNEqg94M2z1kT1-otJSF-152" value="&lt;font style=&quot;font-size: 9px;&quot;&gt;id : Integer&lt;/font&gt;" style="text;strokeColor=none;fillColor=none;align=left;verticalAlign=top;spacingLeft=4;spacingRight=4;overflow=hidden;rotatable=0;points=[[0,0.5],[1,0.5]];portConstraint=eastwest;whiteSpace=wrap;html=1;" vertex="1" parent="CNEqg94M2z1kT1-otJSF-151">
          <mxGeometry y="26" width="170" height="28" as="geometry" />
        </mxCell>
        <mxCell id="CNEqg94M2z1kT1-otJSF-153" value="lot_name: String" style="text;strokeColor=none;fillColor=none;align=left;verticalAlign=top;spacingLeft=4;spacingRight=4;overflow=hidden;rotatable=0;points=[[0,0.5],[1,0.5]];portConstraint=eastwest;whiteSpace=wrap;html=1;fontSize=9;" vertex="1" parent="CNEqg94M2z1kT1-otJSF-151">
          <mxGeometry y="54" width="170" height="26" as="geometry" />
        </mxCell>
        <mxCell id="CNEqg94M2z1kT1-otJSF-154" value="expected_piece_id: Integer" style="text;strokeColor=none;fillColor=none;align=left;verticalAlign=top;spacingLeft=4;spacingRight=4;overflow=hidden;rotatable=0;points=[[0,0.5],[1,0.5]];portConstraint=eastwest;whiteSpace=wrap;html=1;fontSize=9;" vertex="1" parent="CNEqg94M2z1kT1-otJSF-151">
          <mxGeometry y="80" width="170" height="26" as="geometry" />
        </mxCell>
        <mxCell id="CNEqg94M2z1kT1-otJSF-155" value="expected_piece_number: Integer" style="text;strokeColor=none;fillColor=none;align=left;verticalAlign=top;spacingLeft=4;spacingRight=4;overflow=hidden;rotatable=0;points=[[0,0.5],[1,0.5]];portConstraint=eastwest;whiteSpace=wrap;html=1;fontSize=9;" vertex="1" parent="CNEqg94M2z1kT1-otJSF-151">
          <mxGeometry y="106" width="170" height="26" as="geometry" />
        </mxCell>
        <mxCell id="CNEqg94M2z1kT1-otJSF-156" value="total_piece_detected: Integer" style="text;strokeColor=none;fillColor=none;align=left;verticalAlign=top;spacingLeft=4;spacingRight=4;overflow=hidden;rotatable=0;points=[[0,0.5],[1,0.5]];portConstraint=eastwest;whiteSpace=wrap;html=1;fontSize=9;" vertex="1" parent="CNEqg94M2z1kT1-otJSF-151">
          <mxGeometry y="132" width="170" height="26" as="geometry" />
        </mxCell>
        <mxCell id="CNEqg94M2z1kT1-otJSF-157" value="misplaced_piece_count: Integer" style="text;strokeColor=none;fillColor=none;align=left;verticalAlign=top;spacingLeft=4;spacingRight=4;overflow=hidden;rotatable=0;points=[[0,0.5],[1,0.5]];portConstraint=eastwest;whiteSpace=wrap;html=1;fontSize=9;" vertex="1" parent="CNEqg94M2z1kT1-otJSF-151">
          <mxGeometry y="158" width="170" height="26" as="geometry" />
        </mxCell>
        <mxCell id="CNEqg94M2z1kT1-otJSF-158" value="created_at : DateTime" style="text;strokeColor=none;fillColor=none;align=left;verticalAlign=top;spacingLeft=4;spacingRight=4;overflow=hidden;rotatable=0;points=[[0,0.5],[1,0.5]];portConstraint=eastwest;whiteSpace=wrap;html=1;fontSize=9;" vertex="1" parent="CNEqg94M2z1kT1-otJSF-151">
          <mxGeometry y="184" width="170" height="26" as="geometry" />
        </mxCell>
        <mxCell id="CNEqg94M2z1kT1-otJSF-159" value="completed_at : DateTime" style="text;strokeColor=none;fillColor=none;align=left;verticalAlign=top;spacingLeft=4;spacingRight=4;overflow=hidden;rotatable=0;points=[[0,0.5],[1,0.5]];portConstraint=eastwest;whiteSpace=wrap;html=1;fontSize=9;" vertex="1" parent="CNEqg94M2z1kT1-otJSF-151">
          <mxGeometry y="210" width="170" height="20" as="geometry" />
        </mxCell>
        <mxCell id="CNEqg94M2z1kT1-otJSF-160" value="&lt;font&gt;DetectioPerformance&lt;/font&gt;" style="swimlane;fontStyle=0;childLayout=stackLayout;horizontal=1;startSize=26;fillColor=none;horizontalStack=0;resizeParent=1;resizeParentMax=0;resizeLast=0;collapsible=1;marginBottom=0;whiteSpace=wrap;html=1;fontSize=9;" vertex="1" parent="1">
          <mxGeometry x="1350" y="-507" width="170" height="158" as="geometry" />
        </mxCell>
        <mxCell id="CNEqg94M2z1kT1-otJSF-161" value="&lt;font style=&quot;font-size: 9px;&quot;&gt;id : Integer&lt;/font&gt;" style="text;strokeColor=none;fillColor=none;align=left;verticalAlign=top;spacingLeft=4;spacingRight=4;overflow=hidden;rotatable=0;points=[[0,0.5],[1,0.5]];portConstraint=eastwest;whiteSpace=wrap;html=1;" vertex="1" parent="CNEqg94M2z1kT1-otJSF-160">
          <mxGeometry y="26" width="170" height="28" as="geometry" />
        </mxCell>
        <mxCell id="CNEqg94M2z1kT1-otJSF-162" value="lot_id: Integer" style="text;strokeColor=none;fillColor=none;align=left;verticalAlign=top;spacingLeft=4;spacingRight=4;overflow=hidden;rotatable=0;points=[[0,0.5],[1,0.5]];portConstraint=eastwest;whiteSpace=wrap;html=1;fontSize=9;" vertex="1" parent="CNEqg94M2z1kT1-otJSF-160">
          <mxGeometry y="54" width="170" height="26" as="geometry" />
        </mxCell>
        <mxCell id="CNEqg94M2z1kT1-otJSF-163" value="totale_processing_time: Float" style="text;strokeColor=none;fillColor=none;align=left;verticalAlign=top;spacingLeft=4;spacingRight=4;overflow=hidden;rotatable=0;points=[[0,0.5],[1,0.5]];portConstraint=eastwest;whiteSpace=wrap;html=1;fontSize=9;" vertex="1" parent="CNEqg94M2z1kT1-otJSF-160">
          <mxGeometry y="80" width="170" height="26" as="geometry" />
        </mxCell>
        <mxCell id="CNEqg94M2z1kT1-otJSF-164" value="average_fps: Float" style="text;strokeColor=none;fillColor=none;align=left;verticalAlign=top;spacingLeft=4;spacingRight=4;overflow=hidden;rotatable=0;points=[[0,0.5],[1,0.5]];portConstraint=eastwest;whiteSpace=wrap;html=1;fontSize=9;" vertex="1" parent="CNEqg94M2z1kT1-otJSF-160">
          <mxGeometry y="106" width="170" height="26" as="geometry" />
        </mxCell>
        <mxCell id="CNEqg94M2z1kT1-otJSF-165" value="device_used: String" style="text;strokeColor=none;fillColor=none;align=left;verticalAlign=top;spacingLeft=4;spacingRight=4;overflow=hidden;rotatable=0;points=[[0,0.5],[1,0.5]];portConstraint=eastwest;whiteSpace=wrap;html=1;fontSize=9;" vertex="1" parent="CNEqg94M2z1kT1-otJSF-160">
          <mxGeometry y="132" width="170" height="26" as="geometry" />
        </mxCell>
        <mxCell id="CNEqg94M2z1kT1-otJSF-166" style="edgeStyle=orthogonalEdgeStyle;rounded=0;orthogonalLoop=1;jettySize=auto;html=1;entryX=0;entryY=0.5;entryDx=0;entryDy=0;endArrow=none;endFill=0;startArrow=diamondThin;startFill=1;exitX=1;exitY=0.5;exitDx=0;exitDy=0;" edge="1" parent="1" source="CNEqg94M2z1kT1-otJSF-157" target="CNEqg94M2z1kT1-otJSF-163">
          <mxGeometry relative="1" as="geometry">
            <mxPoint x="1270" y="-419" as="sourcePoint" />
            <mxPoint x="1467.25" y="-361" as="targetPoint" />
          </mxGeometry>
        </mxCell>
        <mxCell id="CNEqg94M2z1kT1-otJSF-167" value="&lt;font&gt;DetectionSession&lt;/font&gt;" style="swimlane;fontStyle=0;childLayout=stackLayout;horizontal=1;startSize=26;fillColor=none;horizontalStack=0;resizeParent=1;resizeParentMax=0;resizeLast=0;collapsible=1;marginBottom=0;whiteSpace=wrap;html=1;fontSize=9;" vertex="1" parent="1">
          <mxGeometry x="1260" y="-200" width="170" height="184" as="geometry" />
        </mxCell>
        <mxCell id="CNEqg94M2z1kT1-otJSF-168" value="&lt;font style=&quot;font-size: 9px;&quot;&gt;id : Integer&lt;/font&gt;" style="text;strokeColor=none;fillColor=none;align=left;verticalAlign=top;spacingLeft=4;spacingRight=4;overflow=hidden;rotatable=0;points=[[0,0.5],[1,0.5]];portConstraint=eastwest;whiteSpace=wrap;html=1;" vertex="1" parent="CNEqg94M2z1kT1-otJSF-167">
          <mxGeometry y="26" width="170" height="28" as="geometry" />
        </mxCell>
        <mxCell id="CNEqg94M2z1kT1-otJSF-169" value="lot_id: Integer" style="text;strokeColor=none;fillColor=none;align=left;verticalAlign=top;spacingLeft=4;spacingRight=4;overflow=hidden;rotatable=0;points=[[0,0.5],[1,0.5]];portConstraint=eastwest;whiteSpace=wrap;html=1;fontSize=9;" vertex="1" parent="CNEqg94M2z1kT1-otJSF-167">
          <mxGeometry y="54" width="170" height="26" as="geometry" />
        </mxCell>
        <mxCell id="CNEqg94M2z1kT1-otJSF-170" value="detected_labels: list" style="text;strokeColor=none;fillColor=none;align=left;verticalAlign=top;spacingLeft=4;spacingRight=4;overflow=hidden;rotatable=0;points=[[0,0.5],[1,0.5]];portConstraint=eastwest;whiteSpace=wrap;html=1;fontSize=9;" vertex="1" parent="CNEqg94M2z1kT1-otJSF-167">
          <mxGeometry y="80" width="170" height="26" as="geometry" />
        </mxCell>
        <mxCell id="CNEqg94M2z1kT1-otJSF-171" value="confedence_score: Float" style="text;strokeColor=none;fillColor=none;align=left;verticalAlign=top;spacingLeft=4;spacingRight=4;overflow=hidden;rotatable=0;points=[[0,0.5],[1,0.5]];portConstraint=eastwest;whiteSpace=wrap;html=1;fontSize=9;" vertex="1" parent="CNEqg94M2z1kT1-otJSF-167">
          <mxGeometry y="106" width="170" height="26" as="geometry" />
        </mxCell>
        <mxCell id="CNEqg94M2z1kT1-otJSF-172" value="is_target_matched: Boolean" style="text;strokeColor=none;fillColor=none;align=left;verticalAlign=top;spacingLeft=4;spacingRight=4;overflow=hidden;rotatable=0;points=[[0,0.5],[1,0.5]];portConstraint=eastwest;whiteSpace=wrap;html=1;fontSize=9;" vertex="1" parent="CNEqg94M2z1kT1-otJSF-167">
          <mxGeometry y="132" width="170" height="26" as="geometry" />
        </mxCell>
        <mxCell id="CNEqg94M2z1kT1-otJSF-173" value="created_at : DateTime" style="text;strokeColor=none;fillColor=none;align=left;verticalAlign=top;spacingLeft=4;spacingRight=4;overflow=hidden;rotatable=0;points=[[0,0.5],[1,0.5]];portConstraint=eastwest;whiteSpace=wrap;html=1;fontSize=9;" vertex="1" parent="CNEqg94M2z1kT1-otJSF-167">
          <mxGeometry y="158" width="170" height="26" as="geometry" />
        </mxCell>
        <mxCell id="CNEqg94M2z1kT1-otJSF-174" style="edgeStyle=orthogonalEdgeStyle;rounded=0;orthogonalLoop=1;jettySize=auto;html=1;endArrow=none;endFill=0;startArrow=diamondThin;startFill=1;exitX=0.621;exitY=1.04;exitDx=0;exitDy=0;exitPerimeter=0;" edge="1" parent="1" source="CNEqg94M2z1kT1-otJSF-159" target="CNEqg94M2z1kT1-otJSF-167">
          <mxGeometry relative="1" as="geometry">
            <mxPoint x="1310" y="-292" as="sourcePoint" />
            <mxPoint x="1390" y="-370" as="targetPoint" />
          </mxGeometry>
        </mxCell>
        <mxCell id="CNEqg94M2z1kT1-otJSF-175" style="edgeStyle=orthogonalEdgeStyle;rounded=0;orthogonalLoop=1;jettySize=auto;html=1;entryX=0.368;entryY=0.99;entryDx=0;entryDy=0;endArrow=none;endFill=0;startArrow=diamondThin;startFill=1;exitX=0.094;exitY=0.006;exitDx=0;exitDy=0;entryPerimeter=0;exitPerimeter=0;" edge="1" parent="1" source="CNEqg94M2z1kT1-otJSF-83" target="CNEqg94M2z1kT1-otJSF-159">
          <mxGeometry relative="1" as="geometry">
            <mxPoint x="1640" y="-462" as="sourcePoint" />
            <mxPoint x="1720" y="-540" as="targetPoint" />
            <Array as="points">
              <mxPoint x="1636" />
              <mxPoint x="1163" />
            </Array>
          </mxGeometry>
        </mxCell>
      </root>
    </mxGraphModel>
  </diagram>
</mxfile>
